<?xml version="1.0" standalone="no"?><!DOCTYPE svg PUBLIC "-//W3C//DTD SVG 1.1//EN" "http://www.w3.org/Graphics/SVG/1.1/DTD/svg11.dtd" ><svg xmlns="http://www.w3.org/2000/svg"><metadata></metadata><defs><font id="Font Awesome 5 Free Regular-5.11.2" horiz-adv-x="640"><font-face font-family="Font Awesome 5 Free Regular" font-weight="400" font-stretch="normal" units-per-em="512" panose-1="2 0 5 3 0 0 0 0 0 0" ascent="448" descent="-64" x-height="0" bbox="-20 -71 647 457" underline-thickness="25" underline-position="-37" unicode-range="U+f004-f5c8" /><missing-glyph horiz-adv-x="512"  /><glyph glyph-name="heart" unicode="&#xf004;" d="M458 384 q36 -31 48 -73.5 q12 -42.5 1 -81.5 q-11 -39 -38 -67 l-175 -178 q-16 -16 -38 -16 q-22 0 -38 16 l-175 178 q-27 28 -38 67.5 q-11 39.5 1 81.5 q12 42 48 73 q43 36 101.5 31.5 q58.5 -4.5 100.5 -46.5 q42 42 100.5 46.5 q58.5 4.5 101.5 -31.5 ZM435 196 q29 30 29 73.5 q0 43.5 -36 77.5 q-30 24 -69.5 21 q-39.5 -3 -67.5 -32 l-35 -35 l-35 35 q-28 29 -67.5 32 q-39.5 3 -69.5 -21 q-36 -34 -36 -77.5 q0 -43.5 29 -73.5 l176 -178 q3 -4 6 0 l176 178 Z" /><glyph glyph-name="star" unicode="&#xf005;" d="M528 276 q20 -2 26 -21 q6 -19 -8 -33 l-106 -103 l25 -146 q3 -19 -13 -30.5 q-16 -11.5 -33 -2.5 l-131 68 l-131 -68 q-17 -10 -33 2 q-16 12 -13 31 l25 146 l-106 103 q-14 14 -8 33 q6 19 26 21 l146 22 l65 132 q9 18 29 18 q20 0 29 -18 l65 -132 l146 -22 ZM389 136 l100 98 l-139 20 l-62 126 l-62 -126 l-139 -20 l100 -98 l-23 -139 l124 66 l124 -66 l-23 139 Z" /><glyph glyph-name="user" unicode="&#xf007;" d="M314 144 q55 0 94.5 -39.5 q39.5 -39.5 39.5 -94.5 l0 -26 q0 -20 -14 -34 q-14 -14 -34 -14 l-352 0 q-20 0 -34 14 q-14 14 -14 34 l0 26 q0 55 39.5 94.5 q39.5 39.5 94.5 39.5 q13 0 38.5 -8 q25.5 -8 51.5 -8 q26 0 52 8 q26 8 38 8 ZM400 -16 l0 26 q0 35 -25.5 60.5 q-25.5 25.5 -60.5 25.5 q-3 0 -31.5 -8 q-28.5 -8 -58.5 -8 q-30 0 -58.5 8 q-28.5 8 -31.5 8 q-35 0 -60.5 -25.5 q-25.5 -25.5 -25.5 -60.5 l0 -26 l352 0 ZM326 202 q-42 -42 -102 -42 q-60 0 -102 42 q-42 42 -42 102 q0 60 42 102 q42 42 102 42 q60 0 102 -42 q42 -42 42 -102 q0 -60 -42 -102 ZM292 372 q-28 28 -68 28 q-40 0 -68 -28 q-28 -28 -28 -68 q0 -40 28 -68 q28 -28 68 -28 q40 0 68 28 q28 28 28 68 q0 40 -28 68 Z" /><glyph glyph-name="clock" unicode="&#xf017;" d="M80.5 367.5 q72.5 72.5 175.5 72.5 q103 0 175.5 -72.5 q72.5 -72.5 72.5 -175.5 q0 -103 -72.5 -175.5 q-72.5 -72.5 -175.5 -72.5 q-103 0 -175.5 72.5 q-72.5 72.5 -72.5 175.5 q0 103 72.5 175.5 ZM114.5 50.5 q58.5 -58.5 141.5 -58.5 q83 0 141.5 58.5 q58.5 58.5 58.5 141.5 q0 83 -58.5 141.5 q-58.5 58.5 -141.5 58.5 q-83 0 -141.5 -58.5 q-58.5 -58.5 -58.5 -141.5 q0 -83 58.5 -141.5 ZM318 96 l-85 62 q-5 4 -5 10 l0 164 q0 12 12 12 l32 0 q12 0 12 -12 l0 -142 l67 -48 q9 -7 2 -17 l-18 -26 q-7 -10 -17 -3 Z" /><glyph glyph-name="list-alt" unicode="&#xf022;" d="M464 416 q20 0 34 -14 q14 -14 14 -34 l0 -352 q0 -20 -14 -34 q-14 -14 -34 -14 l-416 0 q-20 0 -34 14 q-14 14 -14 34 l0 352 q0 20 14 34 q14 14 34 14 l416 0 ZM458 16 q6 0 6 6 l0 340 q0 6 -6 6 l-404 0 q-6 0 -6 -6 l0 -340 q0 -6 6 -6 l404 0 ZM416 108 l0 -24 q0 -12 -12 -12 l-200 0 q-12 0 -12 12 l0 24 q0 12 12 12 l200 0 q12 0 12 -12 ZM416 204 l0 -24 q0 -12 -12 -12 l-200 0 q-12 0 -12 12 l0 24 q0 12 12 12 l200 0 q12 0 12 -12 ZM416 300 l0 -24 q0 -12 -12 -12 l-200 0 q-12 0 -12 12 l0 24 q0 12 12 12 l200 0 q12 0 12 -12 ZM153.5 313.5 q10.5 -10.5 10.5 -25.5 q0 -15 -10.5 -25.5 q-10.5 -10.5 -25.5 -10.5 q-15 0 -25.5 10.5 q-10.5 10.5 -10.5 25.5 q0 15 10.5 25.5 q10.5 10.5 25.5 10.5 q15 0 25.5 -10.5 ZM153.5 217.5 q10.5 -10.5 10.5 -25.5 q0 -15 -10.5 -25.5 q-10.5 -10.5 -25.5 -10.5 q-15 0 -25.5 10.5 q-10.5 10.5 -10.5 25.5 q0 15 10.5 25.5 q10.5 10.5 25.5 10.5 q15 0 25.5 -10.5 ZM153.5 121.5 q10.5 -10.5 10.5 -25.5 q0 -15 -10.5 -25.5 q-10.5 -10.5 -25.5 -10.5 q-15 0 -25.5 10.5 q-10.5 10.5 -10.5 25.5 q0 15 10.5 25.5 q10.5 10.5 25.5 10.5 q15 0 25.5 -10.5 Z" /><glyph glyph-name="flag" unicode="&#xf024;" d="M336 368 q44 0 109 28 q24 10 45.5 -4 q21.5 -14 21.5 -40 l0 -240 q0 -26 -22 -40 q-61 -40 -128 -40 q-37 0 -88.5 16 q-51.5 16 -73.5 16 q-65 0 -128 -29 l0 -83 q0 -7 -4.5 -11.5 q-4.5 -4.5 -11.5 -4.5 l-16 0 q-7 0 -11.5 4.5 q-4.5 4.5 -4.5 11.5 l0 406 q-24 14 -24 42 q0 21 15 35 q15 14 36 13 q17 -1 30 -13 q13 -12 15 -29 q0 -3 0 -6 q0 -8 -2 -15 q39 15 80 15 q37 0 88.5 -16 q51.5 -16 73.5 -16 ZM464 112 l0 240 q-69 -32 -128 -32 q-30 0 -81 16 q-51 16 -81 16 q-57 0 -102 -32 l0 -232 q52 24 128 24 q30 0 81 -16 q51 -16 81 -16 q57 0 102 32 Z" /><glyph glyph-name="bookmark" unicode="&#xf02e;" d="M336 448 q20 0 34 -14 q14 -14 14 -34 l0 -464 l-192 112 l-192 -112 l0 464 q0 20 14 34 q14 14 34 14 l288 0 ZM336 20 l0 374 q0 6 -6 6 l-276 0 q-6 0 -6 -6 l0 -374 l144 84 l144 -84 Z" /><glyph glyph-name="image" unicode="&#xf03e;" d="M464 384 q20 0 34 -14 q14 -14 14 -34 l0 -288 q0 -20 -14 -34 q-14 -14 -34 -14 l-416 0 q-20 0 -34 14 q-14 14 -14 34 l0 288 q0 20 14 34 q14 14 34 14 l416 0 ZM458 48 q6 0 6 6 l0 276 q0 6 -6 6 l-404 0 q-6 0 -6 -6 l0 -276 q0 -6 6 -6 l404 0 ZM99.5 284.5 q11.5 11.5 28.5 11.5 q17 0 28.5 -11.5 q11.5 -11.5 11.5 -28.5 q0 -17 -11.5 -28.5 q-11.5 -11.5 -28.5 -11.5 q-17 0 -28.5 11.5 q-11.5 11.5 -11.5 28.5 q0 17 11.5 28.5 ZM96 96 l0 48 l40 40 q8 8 16 0 l40 -40 l120 120 q8 8 16 0 l88 -88 l0 -80 l-320 0 Z" /><glyph glyph-name="edit" unicode="&#xf044;" d="M402 103 l32 32 q4 4 9 2 q5 -2 5 -8 l0 -145 q0 -20 -14 -34 q-14 -14 -34 -14 l-352 0 q-20 0 -34 14 q-14 14 -14 34 l0 352 q0 20 14 34 q14 14 34 14 l274 0 q5 0 7 -5 q2 -5 -2 -9 l-32 -32 q-2 -2 -5 -2 l-242 0 l0 -352 l352 0 l0 114 q0 3 2 5 ZM559 305 l-263 -263 l-90 -10 q-20 -2 -34 12 q-14 14 -12 34 l10 90 l263 263 q17 17 41 17 q24 0 42 -17 l43 -43 q17 -17 17 -41.5 q0 -24.5 -17 -41.5 ZM460 274 l-58 58 l-186 -186 l-7 -65 l65 7 l186 186 ZM525 354 l-43 43 q-8 7 -15 0 l-31 -31 l58 -58 l31 31 q7 7 0 15 Z" /><glyph glyph-name="times-circle" unicode="&#xf057;" d="M80.5 367.5 q72.5 72.5 175.5 72.5 q103 0 175.5 -72.5 q72.5 -72.5 72.5 -175.5 q0 -103 -72.5 -175.5 q-72.5 -72.5 -175.5 -72.5 q-103 0 -175.5 72.5 q-72.5 72.5 -72.5 175.5 q0 103 72.5 175.5 ZM114.5 50.5 q58.5 -58.5 141.5 -58.5 q83 0 141.5 58.5 q58.5 58.5 58.5 141.5 q0 83 -58.5 141.5 q-58.5 58.5 -141.5 58.5 q-83 0 -141.5 -58.5 q-58.5 -58.5 -58.5 -141.5 q0 -83 58.5 -141.5 ZM358 254 l-62 -62 l62 -62 q8 -9 0 -17 l-23 -23 q-8 -8 -17 0 l-62 62 l-62 -62 q-9 -8 -17 0 l-23 23 q-8 8 0 17 l62 62 l-62 62 q-8 9 0 17 l23 23 q8 8 17 0 l62 -62 l62 62 q9 8 17 0 l23 -23 q8 -8 0 -17 Z" /><glyph glyph-name="check-circle" unicode="&#xf058;" d="M80.5 367.5 q72.5 72.5 175.5 72.5 q103 0 175.5 -72.5 q72.5 -72.5 72.5 -175.5 q0 -103 -72.5 -175.5 q-72.5 -72.5 -175.5 -72.5 q-103 0 -175.5 72.5 q-72.5 72.5 -72.5 175.5 q0 103 72.5 175.5 ZM397.5 333.5 q-58.5 58.5 -141.5 58.5 q-83 0 -141.5 -58.5 q-58.5 -58.5 -58.5 -141.5 q0 -83 58.5 -141.5 q58.5 -58.5 141.5 -58.5 q83 0 141.5 58.5 q58.5 58.5 58.5 141.5 q0 83 -58.5 141.5 ZM396 262 q9 -9 0 -17 l-172 -171 q-9 -9 -17 0 l-91 91 q-9 9 0 17 l23 23 q8 8 17 0 l59 -61 l142 141 q8 8 17 -1 l22 -22 Z" /><glyph glyph-name="question-circle" unicode="&#xf059;" d="M80.5 367.5 q72.5 72.5 175.5 72.5 q103 0 175.5 -72.5 q72.5 -72.5 72.5 -175.5 q0 -103 -72.5 -175.5 q-72.5 -72.5 -175.5 -72.5 q-103 0 -175.5 72.5 q-72.5 72.5 -72.5 175.5 q0 103 72.5 175.5 ZM114.5 50.5 q58.5 -58.5 141.5 -58.5 q83 0 141.5 58.5 q58.5 58.5 58.5 141.5 q0 83 -58.5 141.5 q-58.5 58.5 -141.5 58.5 q-83 0 -141.5 -58.5 q-58.5 -58.5 -58.5 -141.5 q0 -83 58.5 -141.5 ZM363 247 q0 -23 -11 -39 q-11 -16 -25 -23 q-14 -7 -25 -15 q-11 -8 -11 -16 l0 -6 q0 -5 -3.5 -8.5 q-3.5 -3.5 -8.5 -3.5 l-46 0 q-5 0 -8.5 3.5 q-3.5 3.5 -3.5 8.5 l0 9 q0 12 4 22 q4 10 13 18 q9 8 14 11.5 q5 3.5 17 9.5 q8 5 12 7.5 q4 2.5 8.5 6 q4.5 3.5 6 7.5 q1.5 4 1.5 9 q0 12 -12.5 20 q-12.5 8 -27.5 8 q-11 0 -19.5 -3.5 q-8.5 -3.5 -14.5 -9.5 q-6 -6 -15 -17 q-7 -9 -16 -2 l-28 21 q-9 7 -3 17 q37 54 101 54 q38 0 69.5 -26 q31.5 -26 31.5 -63 ZM285.5 109.5 q12.5 -12.5 12.5 -29.5 q0 -17 -12.5 -29.5 q-12.5 -12.5 -29.5 -12.5 q-17 0 -29.5 12.5 q-12.5 12.5 -12.5 29.5 q0 17 12.5 29.5 q12.5 12.5 29.5 12.5 q17 0 29.5 -12.5 Z" /><glyph glyph-name="eye" unicode="&#xf06e;" d="M288 304 q47 0 79.5 -32.5 q32.5 -32.5 32.5 -79 q0 -46.5 -32.5 -79 q-32.5 -32.5 -79 -32.5 q-46.5 0 -79 32.5 q-32.5 32.5 -32.5 78.5 q0 16 4 31 q13 -7 27 -7 q23 0 39.5 16.5 q16.5 16.5 16.5 39.5 q0 14 -7 27 q15 5 31 5 ZM573 207 q3 -7 3 -15 q0 -8 -3 -15 q-42 -80 -118 -128.5 q-76 -48.5 -167 -48.5 q-60 0 -115.5 22.5 q-55.5 22.5 -98.5 62 q-43 39.5 -71 92.5 q-3 7 -3 15 q0 8 3 15 q42 80 118 128.5 q76 48.5 167 48.5 q91 0 167 -48.5 q76 -48.5 118 -128.5 ZM288 48 q74 0 137.5 38.5 q63.5 38.5 100.5 105.5 q-37 67 -100.5 105.5 q-63.5 38.5 -137.5 38.5 q-74 0 -137.5 -38.5 q-63.5 -38.5 -100.5 -105.5 q24 -44 61 -76.5 q37 -32.5 82.5 -50 q45.5 -17.5 94.5 -17.5 Z" /><glyph glyph-name="eye-slash" unicode="&#xf070;" d="M634 -23 q6 -5 6 -12 q0 -6 -4 -11 l-10 -12 q-4 -6 -12 -6 q-6 0 -10 4 l-598 467 q-6 5 -6 12 q0 6 4 11 l10 12 q4 6 12 6 q6 0 10 -4 l598 -467 ZM297 302 q11 2 23 2 q45 0 77.5 -31.5 q32.5 -31.5 34.5 -76.5 l-135 106 ZM343 82 q-11 -2 -23 -2 q-45 0 -77.5 31.5 q-32.5 31.5 -34.5 76.5 l135 -106 ZM320 336 q-27 0 -58 -7 l-47 36 q53 19 105 19 q60 0 115.5 -22.5 q55.5 -22.5 98.5 -62 q43 -39.5 71 -92.5 q3 -7 3 -15 q0 -8 -3 -15 q-22 -41 -53 -75 l-38 30 q26 27 44 60 q-37 67 -100.5 105.5 q-63.5 38.5 -137.5 38.5 ZM320 48 q27 0 58 7 l47 -36 q-53 -19 -105 -19 q-91 0 -167 48.5 q-76 48.5 -118 128.5 q-3 7 -3 15 q0 8 3 15 q22 41 53 75 l38 -30 q-26 -27 -44 -60 q37 -67 100.5 -105.5 q63.5 -38.5 137.5 -38.5 Z" /><glyph glyph-name="calendar-alt" unicode="&#xf073;" d="M148 160 l-40 0 q-12 0 -12 12 l0 40 q0 12 12 12 l40 0 q12 0 12 -12 l0 -40 q0 -12 -12 -12 ZM256 172 q0 -12 -12 -12 l-40 0 q-12 0 -12 12 l0 40 q0 12 12 12 l40 0 q12 0 12 -12 l0 -40 ZM352 172 q0 -12 -12 -12 l-40 0 q-12 0 -12 12 l0 40 q0 12 12 12 l40 0 q12 0 12 -12 l0 -40 ZM256 76 q0 -12 -12 -12 l-40 0 q-12 0 -12 12 l0 40 q0 12 12 12 l40 0 q12 0 12 -12 l0 -40 ZM160 76 q0 -12 -12 -12 l-40 0 q-12 0 -12 12 l0 40 q0 12 12 12 l40 0 q12 0 12 -12 l0 -40 ZM352 76 q0 -12 -12 -12 l-40 0 q-12 0 -12 12 l0 40 q0 12 12 12 l40 0 q12 0 12 -12 l0 -40 ZM448 336 l0 -352 q0 -20 -14 -34 q-14 -14 -34 -14 l-352 0 q-20 0 -34 14 q-14 14 -14 34 l0 352 q0 20 14 34 q14 14 34 14 l48 0 l0 52 q0 12 12 12 l40 0 q12 0 12 -12 l0 -52 l128 0 l0 52 q0 12 12 12 l40 0 q12 0 12 -12 l0 -52 l48 0 q20 0 34 -14 q14 -14 14 -34 ZM400 -10 l0 298 l-352 0 l0 -298 q0 -6 6 -6 l340 0 q6 0 6 6 Z" /><glyph glyph-name="comment" unicode="&#xf075;" d="M75 355 q75 61 181 61 q106 0 181 -61 q75 -61 75 -147 q0 -86 -75 -147 q-75 -61 -181 -61 q-47 0 -93 14 q-65 -46 -139 -46 q-16 0 -22 14.5 q-6 14.5 4 25.5 q2 2 9.5 10.5 q7.5 8.5 19 27 q11.5 18.5 18.5 36.5 q-53 56 -53 126 q0 86 75 147 ZM256 48 q86 0 147 47 q61 47 61 113 q0 66 -61 113 q-61 47 -147 47 q-86 0 -147 -47 q-61 -47 -61 -113 q0 -51 40 -93 l20 -22 l-10 -28 q-8 -20 -20 -41 q30 10 57 30 l20 13 l23 -7 q38 -12 78 -12 Z" /><glyph glyph-name="folder" unicode="&#xf07b;" d="M464 320 q20 0 34 -14 q14 -14 14 -34 l0 -224 q0 -20 -14 -34 q-14 -14 -34 -14 l-416 0 q-20 0 -34 14 q-14 14 -14 34 l0 288 q0 20 14 34 q14 14 34 14 l147 0 q13 0 22 -9 l55 -55 l192 0 ZM464 48 l0 224 l-199 0 q-13 0 -22 9 l-55 55 l-140 0 l0 -288 l416 0 Z" /><glyph glyph-name="folder-open" unicode="&#xf07c;" d="M528 224 q28 0 42 -24.5 q14 -24.5 -1 -48.5 l-80 -128 q-14 -23 -41 -23 l-400 0 q-20 0 -34 14 q-14 14 -14 34 l0 288 q0 20 14 34 q14 14 34 14 l160 0 l64 -64 l160 0 q20 0 34 -14 q14 -14 14 -34 l0 -48 l48 0 ZM48 330 l0 -233 l63 104 q14 23 41 23 l280 0 l0 42 q0 6 -6 6 l-174 0 l-64 64 l-134 0 q-6 0 -6 -6 ZM448 48 l80 128 l-379 0 l-77 -128 l376 0 Z" /><glyph glyph-name="chart-bar" unicode="&#xf080;" d="M397 96 q-5 0 -9 4 q-4 4 -4 9 l0 230 q0 5 4 9 q4 4 9 4 l22 0 q5 0 9 -4 q4 -4 4 -9 l0 -230 q0 -5 -4 -9 q-4 -4 -9 -4 l-22 0 ZM205 96 q-5 0 -9 4 q-4 4 -4 9 l0 198 q0 5 4 9 q4 4 9 4 l22 0 q5 0 9 -4 q4 -4 4 -9 l0 -198 q0 -5 -4 -9 q-4 -4 -9 -4 l-22 0 ZM301 96 q-5 0 -9 4 q-4 4 -4 9 l0 134 q0 5 4 9 q4 4 9 4 l22 0 q5 0 9 -4 q4 -4 4 -9 l0 -134 q0 -5 -4 -9 q-4 -4 -9 -4 l-22 0 ZM496 48 q7 0 11.5 -4.5 q4.5 -4.5 4.5 -11.5 l0 -16 q0 -7 -4.5 -11.5 q-4.5 -4.5 -11.5 -4.5 l-464 0 q-13 0 -22.5 9.5 q-9.5 9.5 -9.5 22.5 l0 336 q0 7 4.5 11.5 q4.5 4.5 11.5 4.5 l16 0 q7 0 11.5 -4.5 q4.5 -4.5 4.5 -11.5 l0 -320 l448 0 ZM109 96 q-5 0 -9 4 q-4 4 -4 9 l0 70 q0 5 4 9 q4 4 9 4 l22 0 q5 0 9 -4 q4 -4 4 -9 l0 -70 q0 -5 -4 -9 q-4 -4 -9 -4 l-22 0 Z" /><glyph glyph-name="comments" unicode="&#xf086;" d="M532 62 q7 -14 16.5 -27.5 q9.5 -13.5 15 -20 q5.5 -6.5 6.5 -7.5 q10 -11 4 -25 q-6 -14 -21 -14 q-65 0 -125 39 q-30 -7 -60 -7 q-64 0 -115.5 27 q-51.5 27 -75.5 71 q-15 2 -29 5 q-59 -39 -125 -39 q-15 0 -21 14 q-6 14 4 25 q21 20 38 55 q-44 43 -44 98 q0 66 61 113 q61 47 147 47 q64 0 116 -27 q52 -27 76 -71 q75 -9 125.5 -53.5 q50.5 -44.5 50.5 -104.5 q0 -55 -44 -98 ZM139 154 l20 -4 q24 -6 49 -6 q65 0 112.5 33 q47.5 33 47.5 79 q0 46 -47.5 79 q-47.5 33 -112.5 33 q-65 0 -112.5 -33 q-47.5 -33 -47.5 -79 q0 -35 30 -64 l24 -24 l-15 -32 q-4 -7 -8 -14 q22 7 43 21 l17 11 ZM498 96 q30 29 30 64 q0 36 -32 65.5 q-32 29.5 -81 40.5 q1 -8 1 -10 q0 -40 -23.5 -74.5 q-23.5 -34.5 -64.5 -56.5 q-41 -22 -91 -27 q49 -50 131 -50 q25 0 49 6 l20 4 l17 -11 q21 -14 43 -21 q-4 7 -8 14 l-15 32 l24 24 Z" /><glyph glyph-name="star-half" unicode="&#xf089;" d="M288 63 l0 -55 l-131 -68 q-17 -9 -33 2.5 q-16 11.5 -13 31.5 l25 145 l-106 103 q-14 14 -8 33 q6 19 26 22 l146 21 l65 132 q9 18 29 18 l0 -68 l-62 -126 l-139 -20 l100 -98 l-23 -139 l124 66 Z" /><glyph glyph-name="lemon" unicode="&#xf094;" d="M436 446.5 q27 -5.5 48 -26.5 q21 -21 26.5 -48 q5.5 -27 -7.5 -49 q-4 -8 -5 -26.5 q-1 -18.5 3 -38.5 q4 -20 2 -48 q-2 -28 -7 -56 q-5 -28 -24.5 -62 q-19.5 -34 -50.5 -65 q-31 -31 -65 -50 q-34 -19 -62 -24.5 q-28 -5.5 -56 -7.5 q-28 -2 -48 2 q-20 4 -38.5 3 q-18.5 -1 -26.5 -5 q-22 -13 -49 -7.5 q-27 5.5 -48 26.5 q-21 21 -26.5 48 q-5.5 27 7.5 49 q4 8 5 26.5 q1 18.5 -3 38.5 q-4 20 -2 48 q2 28 7 56 q5 28 24.5 62 q19.5 34 50.5 65 q31 31 65 50 q34 19 62 24.5 q28 5.5 56 7.5 q28 2 48 -2 q20 -4 38.5 -3 q18.5 1 26.5 5 q22 13 49 7.5 ZM462 347 q10 18 -12 39.5 q-22 21.5 -39 11.5 q-17 -11 -42.5 -11.5 q-25.5 -0.5 -52.5 2.5 q-27 3 -57 1.5 q-30 -1.5 -65 -17.5 q-35 -16 -69 -50 q-34 -34 -50 -69 q-16 -35 -17.5 -65 q-1.5 -30 1.5 -57 q3 -27 2.5 -52.5 q-0.5 -25.5 -11.5 -42.5 q-10 -18 12 -39.5 q22 -21.5 39 -11.5 q15 9 36 11 q21 2 41 -1 q20 -3 45.5 -3 q25.5 0 50.5 3.5 q25 3.5 54.5 20 q29.5 16.5 58.5 44.5 q34 34 50 69 q16 35 17.5 65 q1.5 30 -1.5 57 q-3 27 -2.5 52.5 q0.5 25.5 11.5 42.5 ZM284.5 352 q6.5 -5 7.5 -13.5 q1 -8.5 -4 -15 q-5 -6.5 -14 -7.5 q-41 -5 -89 -53 q-48 -48 -53 -89 q-1 -9 -7.5 -14 q-6.5 -5 -15 -4 q-8.5 1 -13.5 7.5 q-5 6.5 -4 14.5 q7 55 65 113 q58 58 113 65 q8 1 14.5 -4 Z" /><glyph glyph-name="credit-card" unicode="&#xf09d;" d="M528 416 q13 0 24 -6.5 q11 -6.5 17.5 -17.5 q6.5 -11 6.5 -24 l0 -352 q0 -20 -14 -34 q-14 -14 -34 -14 l-480 0 q-20 0 -34 14 q-14 14 -14 34 l0 352 q0 20 14 34 q14 14 34 14 l480 0 ZM54 368 q-6 0 -6 -6 l0 -42 l480 0 l0 42 q0 6 -6 6 l-468 0 ZM522 16 q6 0 6 6 l0 170 l-480 0 l0 -170 q0 -6 6 -6 l468 0 ZM192 116 l0 -40 q0 -12 -12 -12 l-72 0 q-12 0 -12 12 l0 40 q0 12 12 12 l72 0 q12 0 12 -12 ZM384 116 l0 -40 q0 -12 -12 -12 l-136 0 q-12 0 -12 12 l0 40 q0 12 12 12 l136 0 q12 0 12 -12 Z" /><glyph glyph-name="hdd" unicode="&#xf0a0;" d="M567 212 q9 -12 9 -27 l0 -137 q0 -20 -14 -34 q-14 -14 -34 -14 l-480 0 q-20 0 -34 14 q-14 14 -14 34 l0 137 q0 15 9 27 l105 151 q6 9 17.5 15 q11.5 6 21.5 6 l270 0 q10 0 21.5 -6 q11.5 -6 17.5 -15 l105 -151 ZM153 336 l-78 -112 l426 0 l-78 112 l-270 0 ZM528 48 l0 128 l-480 0 l0 -128 l480 0 ZM486.5 134.5 q9.5 -9.5 9.5 -22.5 q0 -13 -9.5 -22.5 q-9.5 -9.5 -22.5 -9.5 q-13 0 -22.5 9.5 q-9.5 9.5 -9.5 22.5 q0 13 9.5 22.5 q9.5 9.5 22.5 9.5 q13 0 22.5 -9.5 ZM390.5 134.5 q9.5 -9.5 9.5 -22.5 q0 -13 -9.5 -22.5 q-9.5 -9.5 -22.5 -9.5 q-13 0 -22.5 9.5 q-9.5 9.5 -9.5 22.5 q0 13 9.5 22.5 q9.5 9.5 22.5 9.5 q13 0 22.5 -9.5 Z" /><glyph glyph-name="hand-point-right" unicode="&#xf0a4;" d="M429 310 q34 0 58.5 -24.5 q24.5 -24.5 24.5 -58.5 q0 -17 -6.5 -32 q-6.5 -15 -18 -26.5 q-11.5 -11.5 -26.5 -18 q-15 -6.5 -32 -6.5 l-36 0 q-2 -12 -8 -22 q4 -34 -16 -63 q-1 -40 -27.5 -65.5 q-26.5 -25.5 -72.5 -25.5 l-21 0 q-34 0 -75.5 20 q-41.5 20 -51.5 20 l-3 0 q-9 -8 -22 -8 l-64 0 q-13 0 -22.5 8.5 q-9.5 8.5 -9.5 20.5 l0 230 q0 12 9.5 20.5 q9.5 8.5 22.5 8.5 l64 0 q13 0 22 -8 l3 0 q9 0 30 24 l0 0 q17 19 26 33 q4 6 13 24 q9 18 15 27.5 q6 9.5 19 18.5 q13 9 29 9 q42 0 67 -23.5 q25 -23.5 25 -59.5 q0 -12 -2 -23 l86 0 ZM429 192 q14 0 24.5 10.5 q10.5 10.5 10.5 24.5 q0 14 -10.5 24.5 q-10.5 10.5 -24.5 10.5 l-159 0 q0 7 13.5 29 q13.5 22 13.5 42 q0 35 -44 35 q-4 0 -9 -8.5 q-5 -8.5 -13 -24 q-8 -15.5 -13 -23.5 q-11 -18 -31 -40 q-32 -36 -59 -40 l0 -176 q17 -2 38 -12 q21 -10 42 -19 q21 -9 40 -9 l21 0 q61 0 51 61 q12 7 16.5 23 q4.5 16 -3.5 31 q14 13 14.5 32 q0.5 19 -9.5 29 l91 0 ZM81 47 q7 7 7 17 q0 10 -7 17 q-7 7 -17 7 q-10 0 -17 -7 q-7 -7 -7 -17 q0 -10 7 -17 q7 -7 17 -7 q10 0 17 7 Z" /><glyph glyph-name="hand-point-left" unicode="&#xf0a5;" d="M0 227 q0 34 24.5 58.5 q24.5 24.5 58.5 24.5 l86 0 q-2 11 -2 23 q0 36 25 59.5 q25 23.5 67 23.5 q16 0 29 -9 q13 -9 19 -18.5 q6 -9.5 15 -27.5 q9 -18 13 -24 q9 -14 26 -33 l0 0 q21 -24 30 -24 l3 0 q9 8 22 8 l64 0 q7 0 12.5 -2.5 q5.5 -2.5 10 -6 q4.5 -3.5 7 -9 q2.5 -5.5 2.5 -11.5 l0 -230 q0 -12 -9.5 -20.5 q-9.5 -8.5 -22.5 -8.5 l-64 0 q-13 0 -22 8 l-3 0 q-10 0 -51.5 -20 q-41.5 -20 -75.5 -20 l-21 0 q-46 0 -72.5 25.5 q-26.5 25.5 -27.5 65.5 q-20 29 -16 63 q-6 10 -8 22 l-36 0 q-34 0 -58.5 24.5 q-24.5 24.5 -24.5 58.5 ZM48 227 q0 -14 10.5 -24.5 q10.5 -10.5 24.5 -10.5 l91 0 q-10 -10 -9.5 -29 q0.5 -19 14.5 -32 q-8 -15 -3.5 -31 q4.5 -16 16.5 -23 q-10 -61 51 -61 l21 0 q24 0 62 19 q38 19 58 21 l0 176 q-27 4 -59 40 q-20 22 -31 40 q-5 8 -13 23.5 q-8 15.5 -13 24 q-5 8.5 -9 8.5 q-44 0 -44 -35 q0 -20 13.5 -42 q13.5 -22 13.5 -29 l-159 0 q-7 0 -13.5 -2.5 q-6.5 -2.5 -11 -7.5 q-4.5 -5 -7.5 -11.5 q-3 -6.5 -3 -13.5 ZM465 81 q-7 7 -17 7 q-10 0 -17 -7 q-7 -7 -7 -17 q0 -10 7 -17 q7 -7 17 -7 q10 0 17 7 q7 7 7 17 q0 10 -7 17 Z" /><glyph glyph-name="hand-point-up" unicode="&#xf0a6;" d="M106 365 q0 34 24.5 58.5 q24.5 24.5 58.5 24.5 q22 0 41.5 -11 q19.5 -11 30.5 -30.5 q11 -19.5 11 -41.5 l0 -36 q12 -2 22 -8 q34 4 63 -16 q40 -1 65.5 -27.5 q25.5 -26.5 25.5 -72.5 l0 -21 q0 -34 -20 -75.5 q-20 -41.5 -20 -51.5 l0 -3 q8 -9 8 -22 l0 -64 q0 -9 -4 -16 q-4 -7 -10.5 -11.5 q-6.5 -4.5 -14.5 -4.5 l-230 0 q-12 0 -20.5 9.5 q-8.5 9.5 -8.5 22.5 l0 64 q0 13 8 22 l0 3 q0 9 -24 30 l0 0 q-19 17 -33 26 q-7 4 -20 10.5 q-13 6.5 -21.5 11.5 q-8.5 5 -18 12.5 q-9.5 7.5 -14.5 18 q-5 10.5 -5 23.5 q0 42 23.5 67 q23.5 25 59.5 25 q12 0 23 -2 l0 86 ZM224 365 q0 14 -10.5 24.5 q-10.5 10.5 -24.5 10.5 q-14 0 -24.5 -10.5 q-10.5 -10.5 -10.5 -24.5 l0 -159 q-7 0 -29 13.5 q-22 13.5 -42 13.5 q-35 0 -35 -44 q0 -4 8.5 -9 q8.5 -5 24 -13 q15.5 -8 23.5 -13 q18 -11 40 -31 q36 -32 40 -59 l176 0 q2 20 21 58 q19 38 19 62 l0 21 q0 61 -61 51 q-7 12 -23 16.5 q-16 4.5 -31 -3.5 q-13 14 -32 14.5 q-19 0.5 -29 -9.5 l0 91 ZM369 17 q-7 7 -17 7 q-10 0 -17 -7 q-7 -7 -7 -17 q0 -10 7 -17 q7 -7 17 -7 q10 0 17 7 q7 7 7 17 q0 10 -7 17 Z" /><glyph glyph-name="hand-point-down" unicode="&#xf0a7;" d="M189 -64 q-34 0 -58.5 24.5 q-24.5 24.5 -24.5 58.5 l0 86 q-11 -2 -23 -2 q-36 0 -59.5 25 q-23.5 25 -23.5 67 q0 13 5 23.5 q5 10.5 14.5 18 q9.5 7.5 18 12.5 q8.5 5 21.5 11.5 q13 6.5 20 10.5 q14 9 33 26 l0 0 q24 21 24 30 l0 3 q-8 9 -8 22 l0 64 q0 13 8.5 22.5 q8.5 9.5 20.5 9.5 l230 0 q12 0 20.5 -9.5 q8.5 -9.5 8.5 -22.5 l0 -64 q0 -13 -8 -22 l0 -3 q0 -10 20 -51.5 q20 -41.5 20 -75.5 l0 -21 q0 -46 -25.5 -72.5 q-25.5 -26.5 -65.5 -27.5 q-29 -20 -63 -16 q-10 -6 -22 -8 l0 -36 q0 -34 -24.5 -58.5 q-24.5 -24.5 -58.5 -24.5 ZM189 -16 q14 0 24.5 10.5 q10.5 10.5 10.5 24.5 l0 91 q10 -10 29 -9.5 q19 0.5 32 14.5 q15 -8 31 -3.5 q16 4.5 23 16.5 q61 -10 61 51 l0 21 q0 24 -19 62 q-19 38 -21 58 l-176 0 q-4 -27 -40 -59 q-22 -20 -40 -31 q-8 -5 -23.5 -13 q-15.5 -8 -24 -13 q-8.5 -5 -8.5 -9 q0 -44 35 -44 q20 0 42 13.5 q22 13.5 29 13.5 l0 -159 q0 -14 10.5 -24.5 q10.5 -10.5 24.5 -10.5 ZM335 401 q-7 -7 -7 -17 q0 -10 7 -17 q7 -7 17 -7 q10 0 17 7 q7 7 7 17 q0 10 -7 17 q-7 7 -17 7 q-10 0 -17 -7 Z" /><glyph glyph-name="copy" unicode="&#xf0c5;" d="M434 382 q14 -14 14 -34 l0 -268 q0 -20 -14 -34 q-14 -14 -34 -14 l-80 0 l0 -48 q0 -20 -14 -34 q-14 -14 -34 -14 l-224 0 q-20 0 -34 14 q-14 14 -14 34 l0 320 q0 20 14 34 q14 14 34 14 l80 0 l0 48 q0 20 14 34 q14 14 34 14 l172 0 q20 0 34 -14 l52 -52 ZM266 -16 q6 0 6 6 l0 42 l-96 0 q-20 0 -34 14 q-14 14 -14 34 l0 224 l-74 0 q-6 0 -6 -6 l0 -308 q0 -6 6 -6 l212 0 ZM394 80 q6 0 6 6 l0 202 l-88 0 q-10 0 -17 7 q-7 7 -7 17 l0 88 l-106 0 q-6 0 -6 -6 l0 -308 q0 -6 6 -6 l212 0 ZM400 336 l0 10 q0 2 -2 4 l-48 48 q-2 2 -4 2 l-10 0 l0 -64 l64 0 Z" /><glyph glyph-name="save" unicode="&#xf0c7;" d="M434 318 q14 -14 14 -34 l0 -268 q0 -20 -14 -34 q-14 -14 -34 -14 l-352 0 q-20 0 -34 14 q-14 14 -14 34 l0 352 q0 20 14 34 q14 14 34 14 l268 0 q20 0 34 -14 l84 -84 ZM272 368 l-128 0 l0 -80 l128 0 l0 80 ZM394 16 q6 0 6 6 l0 260 q0 2 -2 4 l-78 78 l0 -100 q0 -10 -7 -17 q-7 -7 -17 -7 l-176 0 q-10 0 -17 7 q-7 7 -7 17 l0 104 l-42 0 q-6 0 -6 -6 l0 -340 q0 -6 6 -6 l340 0 ZM162 190 q26 26 62 26 q36 0 62 -26 q26 -26 26 -62 q0 -36 -26 -62 q-26 -26 -62 -26 q-36 0 -62 26 q-26 26 -26 62 q0 36 26 62 ZM195.5 99.5 q11.5 -11.5 28.5 -11.5 q17 0 28.5 11.5 q11.5 11.5 11.5 28.5 q0 17 -11.5 28.5 q-11.5 11.5 -28.5 11.5 q-17 0 -28.5 -11.5 q-11.5 -11.5 -11.5 -28.5 q0 -17 11.5 -28.5 Z" /><glyph glyph-name="square" unicode="&#xf0c8;" d="M400 416 q20 0 34 -14 q14 -14 14 -34 l0 -352 q0 -20 -14 -34 q-14 -14 -34 -14 l-352 0 q-20 0 -34 14 q-14 14 -14 34 l0 352 q0 20 14 34 q14 14 34 14 l352 0 ZM394 16 q6 0 6 6 l0 340 q0 6 -6 6 l-340 0 q-6 0 -6 -6 l0 -340 q0 -6 6 -6 l340 0 Z" /><glyph glyph-name="envelope" unicode="&#xf0e0;" d="M464 384 q20 0 34 -14 q14 -14 14 -34 l0 -288 q0 -20 -14 -34 q-14 -14 -34 -14 l-416 0 q-20 0 -34 14 q-14 14 -14 34 l0 288 q0 20 14 34 q14 14 34 14 l416 0 ZM464 336 l-416 0 l0 -41 q35 -28 135 -106 q0 -1 14 -12.5 q14 -11.5 21 -16 q7 -4.5 18.5 -10.5 q11.5 -6 19.5 -6 q8 0 19.5 6 q11.5 6 18.5 10.5 q7 4.5 21 16 q14 11.5 14 12.5 q100 78 135 106 l0 41 ZM48 48 l416 0 l0 186 q-35 -28 -105 -83 q-2 -1 -14.5 -12 q-12.5 -11 -19.5 -16 q-7 -5 -20 -12.5 q-13 -7.5 -25 -11 q-12 -3.5 -24 -3.5 q-12 0 -24.5 3.5 q-12.5 3.5 -25 11.5 q-12.5 8 -19.5 13 q-7 5 -19.5 15.5 q-12.5 10.5 -14.5 11.5 q-70 55 -105 83 l0 -186 Z" /><glyph glyph-name="lightbulb" unicode="&#xf0eb;" d="M176 368 q7 0 11.5 -4.5 q4.5 -4.5 4.5 -11.5 q0 -7 -4.5 -11.5 q-4.5 -4.5 -11.5 -4.5 q-26 0 -45 -19 q-19 -19 -19 -45 q0 -7 -4.5 -11.5 q-4.5 -4.5 -11.5 -4.5 q-7 0 -11.5 4.5 q-4.5 4.5 -4.5 11.5 q0 40 28 68 q28 28 68 28 ZM96 -11 l0 43 l160 0 l0 -43 q0 -5 -3 -9 l-24 -37 q-5 -7 -14 -7 l-78 0 q-9 0 -14 7 l-24 37 q-3 4 -3 9 ZM176 448 q73 0 124.5 -51.5 q51.5 -51.5 51.5 -124.5 q0 -66 -44 -116 q-14 -16 -29.5 -42.5 q-15.5 -26.5 -22.5 -49.5 l-48 0 q0 7 2 14 q19 61 62 110 q32 36 32 84 q0 53 -37.5 90.5 q-37.5 37.5 -90.5 37.5 q-52 0 -90 -37 q-38 -37 -38 -91 q0 -48 32 -84 q43 -49 62 -110 q2 -7 2 -14 l-48 0 q-5 16 -14.5 34.5 q-9.5 18.5 -19.5 33 q-10 14.5 -18 24.5 q-44 50 -44 116 q0 71 50.5 123.5 q50.5 52.5 125.5 52.5 Z" /><glyph glyph-name="bell" unicode="&#xf0f3;" d="M439 86 q9 -10 9 -22 q0 -13 -9 -22.5 q-9 -9.5 -23 -9.5 l-384 0 q-9 0 -16.5 4.5 q-7.5 4.5 -11.5 12 q-4 7.5 -4 15.5 q0 12 9 22 q1 1 3 4 q15 15 23.5 27 q8.5 12 18.5 45.5 q10 33.5 10 77.5 q0 58 36 101 q36 43 92 54 l0 21 q0 13 9.5 22.5 q9.5 9.5 22.5 9.5 q13 0 22.5 -9.5 q9.5 -9.5 9.5 -22.5 l0 -21 q37 -7 66 -29 q29 -22 45.5 -55 q16.5 -33 16.5 -71 q0 -44 10 -77.5 q10 -33.5 18.5 -45.5 q8.5 -12 23.5 -27 q2 -3 3 -4 ZM68 80 l312 0 q-44 59 -44 159 q0 1 0 1 q0 46 -33 79 q-33 33 -79 33 q-46 0 -79 -33 q-33 -33 -33 -79 q0 0 0 -1 q0 -100 -44 -159 ZM269 -45.5 q-19 -18.5 -45 -18.5 q-26 0 -45 18.5 q-19 18.5 -19 45.5 l128 0 q0 -27 -19 -45.5 Z" /><glyph glyph-name="hospital" unicode="&#xf0f8;" d="M128 204 l0 40 q0 12 12 12 l40 0 q12 0 12 -12 l0 -40 q0 -12 -12 -12 l-40 0 q-12 0 -12 12 ZM268 192 q-12 0 -12 12 l0 40 q0 12 12 12 l40 0 q12 0 12 -12 l0 -40 q0 -12 -12 -12 l-40 0 ZM192 108 q0 -12 -12 -12 l-40 0 q-12 0 -12 12 l0 40 q0 12 12 12 l40 0 q12 0 12 -12 l0 -40 ZM268 96 q-12 0 -12 12 l0 40 q0 12 12 12 l40 0 q12 0 12 -12 l0 -40 q0 -12 -12 -12 l-40 0 ZM448 -28 l0 -36 l-448 0 l0 36 q0 12 12 12 l20 0 l0 379 q0 9 7 15 q7 6 17 6 l88 0 l0 40 q0 10 7 17 q7 7 17 7 l112 0 q10 0 17 -7 q7 -7 7 -17 l0 -40 l88 0 q10 0 17 -6 q7 -6 7 -15 l0 -379 l20 0 q12 0 12 -12 ZM80 -15 l112 0 l0 67 q0 12 12 12 l40 0 q12 0 12 -12 l0 -67 l112 0 l0 351 l-64 0 l0 -24 q0 -10 -7 -17 q-7 -7 -17 -7 l-112 0 q-10 0 -17 7 q-7 7 -7 17 l0 24 l-64 0 l0 -351 ZM266 384 l-26 0 l0 26 q0 6 -6 6 l-20 0 q-6 0 -6 -6 l0 -26 l-26 0 q-6 0 -6 -6 l0 -20 q0 -6 6 -6 l26 0 l0 -26 q0 -6 6 -6 l20 0 q6 0 6 6 l0 26 l26 0 q6 0 6 6 l0 20 q0 6 -6 6 Z" /><glyph glyph-name="plus-square" unicode="&#xf0fe;" d="M352 208 l0 -32 q0 -12 -12 -12 l-88 0 l0 -88 q0 -12 -12 -12 l-32 0 q-12 0 -12 12 l0 88 l-88 0 q-12 0 -12 12 l0 32 q0 12 12 12 l88 0 l0 88 q0 12 12 12 l32 0 q12 0 12 -12 l0 -88 l88 0 q12 0 12 -12 ZM448 368 l0 -352 q0 -20 -14 -34 q-14 -14 -34 -14 l-352 0 q-20 0 -34 14 q-14 14 -14 34 l0 352 q0 20 14 34 q14 14 34 14 l352 0 q20 0 34 -14 q14 -14 14 -34 ZM400 22 l0 340 q0 6 -6 6 l-340 0 q-6 0 -6 -6 l0 -340 q0 -6 6 -6 l340 0 q6 0 6 6 Z" /><glyph glyph-name="circle" unicode="&#xf111;" d="M80.5 367.5 q72.5 72.5 175.5 72.5 q103 0 175.5 -72.5 q72.5 -72.5 72.5 -175.5 q0 -103 -72.5 -175.5 q-72.5 -72.5 -175.5 -72.5 q-103 0 -175.5 72.5 q-72.5 72.5 -72.5 175.5 q0 103 72.5 175.5 ZM114.5 50.5 q58.5 -58.5 141.5 -58.5 q83 0 141.5 58.5 q58.5 58.5 58.5 141.5 q0 83 -58.5 141.5 q-58.5 58.5 -141.5 58.5 q-83 0 -141.5 -58.5 q-58.5 -58.5 -58.5 -141.5 q0 -83 58.5 -141.5 Z" /><glyph glyph-name="smile" unicode="&#xf118;" d="M72.5 367.5 q72.5 72.5 175.5 72.5 q103 0 175.5 -72.5 q72.5 -72.5 72.5 -175.5 q0 -103 -72.5 -175.5 q-72.5 -72.5 -175.5 -72.5 q-103 0 -175.5 72.5 q-72.5 72.5 -72.5 175.5 q0 103 72.5 175.5 ZM106.5 50.5 q58.5 -58.5 141.5 -58.5 q83 0 141.5 58.5 q58.5 58.5 58.5 141.5 q0 83 -58.5 141.5 q-58.5 58.5 -141.5 58.5 q-83 0 -141.5 -58.5 q-58.5 -58.5 -58.5 -141.5 q0 -83 58.5 -141.5 ZM190.5 217.5 q-9.5 -9.5 -22.5 -9.5 q-13 0 -22.5 9.5 q-9.5 9.5 -9.5 22.5 q0 13 9.5 22.5 q9.5 9.5 22.5 9.5 q13 0 22.5 -9.5 q9.5 -9.5 9.5 -22.5 q0 -13 -9.5 -22.5 ZM350.5 217.5 q-9.5 -9.5 -22.5 -9.5 q-13 0 -22.5 9.5 q-9.5 9.5 -9.5 22.5 q0 13 9.5 22.5 q9.5 9.5 22.5 9.5 q13 0 22.5 -9.5 q9.5 -9.5 9.5 -22.5 q0 -13 -9.5 -22.5 ZM332 135 q6 8 16 9 q10 1 17.5 -5.5 q7.5 -6.5 8.5 -16.5 q1 -10 -5 -17 q-47 -57 -121 -57 q-74 0 -121 57 q-6 7 -5 17 q1 10 8.5 16.5 q7.5 6.5 17.5 5.5 q10 -1 16 -9 q33 -39 84 -39 q51 0 84 39 Z" /><glyph glyph-name="frown" unicode="&#xf119;" d="M72.5 367.5 q72.5 72.5 175.5 72.5 q103 0 175.5 -72.5 q72.5 -72.5 72.5 -175.5 q0 -103 -72.5 -175.5 q-72.5 -72.5 -175.5 -72.5 q-103 0 -175.5 72.5 q-72.5 72.5 -72.5 175.5 q0 103 72.5 175.5 ZM106.5 50.5 q58.5 -58.5 141.5 -58.5 q83 0 141.5 58.5 q58.5 58.5 58.5 141.5 q0 83 -58.5 141.5 q-58.5 58.5 -141.5 58.5 q-83 0 -141.5 -58.5 q-58.5 -58.5 -58.5 -141.5 q0 -83 58.5 -141.5 ZM190.5 217.5 q-9.5 -9.5 -22.5 -9.5 q-13 0 -22.5 9.5 q-9.5 9.5 -9.5 22.5 q0 13 9.5 22.5 q9.5 9.5 22.5 9.5 q13 0 22.5 -9.5 q9.5 -9.5 9.5 -22.5 q0 -13 -9.5 -22.5 ZM305.5 262.5 q9.5 9.5 22.5 9.5 q13 0 22.5 -9.5 q9.5 -9.5 9.5 -22.5 q0 -13 -9.5 -22.5 q-9.5 -9.5 -22.5 -9.5 q-13 0 -22.5 9.5 q-9.5 9.5 -9.5 22.5 q0 13 9.5 22.5 ZM144 95 q41 49 104 49 q63 0 104 -49 q6 -7 5 -17 q-1 -10 -8 -16 q-8 -7 -18 -6 q-10 1 -16 9 q-26 31 -67 31 q-41 0 -67 -31 q-6 -8 -16 -9 q-10 -1 -17.5 5.5 q-7.5 6.5 -8.5 16.5 q-1 10 5 17 Z" /><glyph glyph-name="meh" unicode="&#xf11a;" d="M72.5 367.5 q72.5 72.5 175.5 72.5 q103 0 175.5 -72.5 q72.5 -72.5 72.5 -175.5 q0 -103 -72.5 -175.5 q-72.5 -72.5 -175.5 -72.5 q-103 0 -175.5 72.5 q-72.5 72.5 -72.5 175.5 q0 103 72.5 175.5 ZM106.5 50.5 q58.5 -58.5 141.5 -58.5 q83 0 141.5 58.5 q58.5 58.5 58.5 141.5 q0 83 -58.5 141.5 q-58.5 58.5 -141.5 58.5 q-83 0 -141.5 -58.5 q-58.5 -58.5 -58.5 -141.5 q0 -83 58.5 -141.5 ZM190.5 217.5 q-9.5 -9.5 -22.5 -9.5 q-13 0 -22.5 9.5 q-9.5 9.5 -9.5 22.5 q0 13 9.5 22.5 q9.5 9.5 22.5 9.5 q13 0 22.5 -9.5 q9.5 -9.5 9.5 -22.5 q0 -13 -9.5 -22.5 ZM305.5 262.5 q9.5 9.5 22.5 9.5 q13 0 22.5 -9.5 q9.5 -9.5 9.5 -22.5 q0 -13 -9.5 -22.5 q-9.5 -9.5 -22.5 -9.5 q-13 0 -22.5 9.5 q-9.5 9.5 -9.5 22.5 q0 13 9.5 22.5 ZM336 128 q10 0 17 -7 q7 -7 7 -17 q0 -10 -7 -17 q-7 -7 -17 -7 l-176 0 q-10 0 -17 7 q-7 7 -7 17 q0 10 7 17 q7 7 17 7 l176 0 Z" /><glyph glyph-name="keyboard" unicode="&#xf11c;" d="M528 384 q20 0 34 -14 q14 -14 14 -34 l0 -288 q0 -20 -14 -34 q-14 -14 -34 -14 l-480 0 q-20 0 -34 14 q-14 14 -14 34 l0 288 q0 20 14 34 q14 14 34 14 l480 0 ZM536 48 l0 288 q0 8 -8 8 l-480 0 q-8 0 -8 -8 l0 -288 q0 -8 8 -8 l480 0 q8 0 8 8 ZM170 178 q0 -12 -12 -12 l-28 0 q-12 0 -12 12 l0 28 q0 12 12 12 l28 0 q12 0 12 -12 l0 -28 ZM266 178 q0 -12 -12 -12 l-28 0 q-12 0 -12 12 l0 28 q0 12 12 12 l28 0 q12 0 12 -12 l0 -28 ZM362 178 q0 -12 -12 -12 l-28 0 q-12 0 -12 12 l0 28 q0 12 12 12 l28 0 q12 0 12 -12 l0 -28 ZM458 178 q0 -12 -12 -12 l-28 0 q-12 0 -12 12 l0 28 q0 12 12 12 l28 0 q12 0 12 -12 l0 -28 ZM122 96 q0 -12 -12 -12 l-28 0 q-12 0 -12 12 l0 28 q0 12 12 12 l28 0 q12 0 12 -12 l0 -28 ZM506 96 q0 -12 -12 -12 l-28 0 q-12 0 -12 12 l0 28 q0 12 12 12 l28 0 q12 0 12 -12 l0 -28 ZM122 260 q0 -12 -12 -12 l-28 0 q-12 0 -12 12 l0 28 q0 12 12 12 l28 0 q12 0 12 -12 l0 -28 ZM218 260 q0 -12 -12 -12 l-28 0 q-12 0 -12 12 l0 28 q0 12 12 12 l28 0 q12 0 12 -12 l0 -28 ZM314 260 q0 -12 -12 -12 l-28 0 q-12 0 -12 12 l0 28 q0 12 12 12 l28 0 q12 0 12 -12 l0 -28 ZM410 260 q0 -12 -12 -12 l-28 0 q-12 0 -12 12 l0 28 q0 12 12 12 l28 0 q12 0 12 -12 l0 -28 ZM506 260 q0 -12 -12 -12 l-28 0 q-12 0 -12 12 l0 28 q0 12 12 12 l28 0 q12 0 12 -12 l0 -28 ZM408 102 q0 -12 -12 -12 l-216 0 q-12 0 -12 12 l0 16 q0 12 12 12 l216 0 q12 0 12 -12 l0 -16 Z" /><glyph glyph-name="calendar" unicode="&#xf133;" d="M400 384 q20 0 34 -14 q14 -14 14 -34 l0 -352 q0 -20 -14 -34 q-14 -14 -34 -14 l-352 0 q-20 0 -34 14 q-14 14 -14 34 l0 352 q0 20 14 34 q14 14 34 14 l48 0 l0 52 q0 12 12 12 l40 0 q12 0 12 -12 l0 -52 l128 0 l0 52 q0 12 12 12 l40 0 q12 0 12 -12 l0 -52 l48 0 ZM394 -16 q6 0 6 6 l0 298 l-352 0 l0 -298 q0 -6 6 -6 l340 0 Z" /><glyph glyph-name="play-circle" unicode="&#xf144;" d="M372 210 q12 -7 12 -21 q0 -14 -12 -21 l-176 -101 q-9 -4 -17 -2.5 q-8 1.5 -13.5 8 q-5.5 6.5 -5.5 15.5 l0 208 q0 14 12 21 q12 7 24 0 l176 -107 ZM431.5 367.5 q72.5 -72.5 72.5 -175.5 q0 -103 -72.5 -175.5 q-72.5 -72.5 -175.5 -72.5 q-103 0 -175.5 72.5 q-72.5 72.5 -72.5 175.5 q0 103 72.5 175.5 q72.5 72.5 175.5 72.5 q103 0 175.5 -72.5 ZM114.5 333.5 q-58.5 -58.5 -58.5 -141.5 q0 -83 58.5 -141.5 q58.5 -58.5 141.5 -58.5 q83 0 141.5 58.5 q58.5 58.5 58.5 141.5 q0 83 -58.5 141.5 q-58.5 58.5 -141.5 58.5 q-83 0 -141.5 -58.5 Z" /><glyph glyph-name="minus-square" unicode="&#xf146;" d="M108 164 q-12 0 -12 12 l0 32 q0 12 12 12 l232 0 q12 0 12 -12 l0 -32 q0 -12 -12 -12 l-232 0 ZM448 368 l0 -352 q0 -20 -14 -34 q-14 -14 -34 -14 l-352 0 q-20 0 -34 14 q-14 14 -14 34 l0 352 q0 20 14 34 q14 14 34 14 l352 0 q20 0 34 -14 q14 -14 14 -34 ZM400 22 l0 340 q0 6 -6 6 l-340 0 q-6 0 -6 -6 l0 -340 q0 -6 6 -6 l340 0 q6 0 6 6 Z" /><glyph glyph-name="check-square" unicode="&#xf14a;" d="M400 416 q20 0 34 -14 q14 -14 14 -34 l0 -352 q0 -20 -14 -34 q-14 -14 -34 -14 l-352 0 q-20 0 -34 14 q-14 14 -14 34 l0 352 q0 20 14 34 q14 14 34 14 l352 0 ZM400 16 l0 352 l-352 0 l0 -352 l352 0 ZM364 258 l-172 -171 q-9 -9 -17 0 l-91 91 q-9 9 0 17 l23 23 q8 8 17 0 l59 -61 l142 140 q8 9 17 0 l22 -22 q9 -9 0 -17 Z" /><glyph glyph-name="share-square" unicode="&#xf14d;" d="M562 290 q14 -14 14 -34 q0 -20 -14 -34 l-144 -144 q-23 -23 -52.5 -10.5 q-29.5 12.5 -29.5 44.5 l0 54 q-49 -4 -70.5 -13.5 q-21.5 -9.5 -21.5 -25.5 q0 -16 8 -40 q11 -32 -16 -52.5 q-27 -20.5 -55 -3.5 q-40 25 -62.5 62.5 q-22.5 37.5 -22.5 82.5 q0 59 36 99 q30 33 83 50 q48 15 121 18 l0 57 q0 32 29.5 44 q29.5 12 52.5 -10 l144 -144 ZM384 112 l144 144 l-144 144 l0 -104 q-33 0 -57 -1.5 q-24 -1.5 -54 -5.5 q-30 -4 -51 -12.5 q-21 -8.5 -40 -21 q-19 -12.5 -28.5 -33 q-9.5 -20.5 -9.5 -46.5 q0 -65 62 -104 q-7 22 -9 40.5 q-2 18.5 2 32.5 q4 14 12 25 q8 11 21 18.5 q13 7.5 28.5 12.5 q15.5 5 36 8.5 q20.5 3.5 41 4.5 q20.5 1 46.5 2 l0 -104 ZM409 28 q11 3 21 9 q6 4 12 0.5 q6 -3.5 6 -10.5 l0 -43 q0 -20 -14 -34 q-14 -14 -34 -14 l-352 0 q-20 0 -34 14 q-14 14 -14 34 l0 352 q0 20 14 34 q14 14 34 14 l132 0 q12 0 12 -12 l0 -4 q0 -9 -8 -12 q-20 -8 -38 -18 q-3 -2 -6 -2 l-86 0 q-6 0 -6 -6 l0 -340 q0 -6 6 -6 l340 0 q6 0 6 6 l0 26 q0 9 9 12 Z" /><glyph glyph-name="compass" unicode="&#xf14e;" d="M348 318 q12 6 22 -4 q10 -10 4 -22 l-66 -144 q-5 -11 -16 -16 l-144 -66 q-12 -6 -22 4 q-10 10 -4 22 l66 144 q5 11 16 16 l144 66 ZM248 160 q13 0 22.5 9.5 q9.5 9.5 9.5 22.5 q0 13 -9.5 22.5 q-9.5 9.5 -22.5 9.5 q-13 0 -22.5 -9.5 q-9.5 -9.5 -9.5 -22.5 q0 -13 9.5 -22.5 q9.5 -9.5 22.5 -9.5 ZM72.5 367.5 q72.5 72.5 175.5 72.5 q103 0 175.5 -72.5 q72.5 -72.5 72.5 -175.5 q0 -103 -72.5 -175.5 q-72.5 -72.5 -175.5 -72.5 q-103 0 -175.5 72.5 q-72.5 72.5 -72.5 175.5 q0 103 72.5 175.5 ZM106.5 50.5 q58.5 -58.5 141.5 -58.5 q83 0 141.5 58.5 q58.5 58.5 58.5 141.5 q0 83 -58.5 141.5 q-58.5 58.5 -141.5 58.5 q-83 0 -141.5 -58.5 q-58.5 -58.5 -58.5 -141.5 q0 -83 58.5 -141.5 Z" /><glyph glyph-name="caret-square-down" unicode="&#xf150;" d="M125 240 l198 0 q8 0 11 -7.5 q3 -7.5 -3 -12.5 l-99 -99 q-8 -8 -16 0 l-99 99 q-6 5 -3 12.5 q3 7.5 11 7.5 ZM448 368 l0 -352 q0 -20 -14 -34 q-14 -14 -34 -14 l-352 0 q-20 0 -34 14 q-14 14 -14 34 l0 352 q0 20 14 34 q14 14 34 14 l352 0 q20 0 34 -14 q14 -14 14 -34 ZM400 22 l0 340 q0 6 -6 6 l-340 0 q-6 0 -6 -6 l0 -340 q0 -6 6 -6 l340 0 q6 0 6 6 Z" /><glyph glyph-name="caret-square-up" unicode="&#xf151;" d="M323 144 l-198 0 q-8 0 -11 7.5 q-3 7.5 3 12.5 l99 99 q8 8 16 0 l99 -99 q6 -5 3 -12.5 q-3 -7.5 -11 -7.5 ZM448 368 l0 -352 q0 -20 -14 -34 q-14 -14 -34 -14 l-352 0 q-20 0 -34 14 q-14 14 -14 34 l0 352 q0 20 14 34 q14 14 34 14 l352 0 q20 0 34 -14 q14 -14 14 -34 ZM400 22 l0 340 q0 6 -6 6 l-340 0 q-6 0 -6 -6 l0 -340 q0 -6 6 -6 l340 0 q6 0 6 6 Z" /><glyph glyph-name="caret-square-right" unicode="&#xf152;" d="M176 93 l0 198 q0 8 7.5 11 q7.5 3 12.5 -3 l99 -99 q8 -8 0 -16 l-99 -99 q-5 -6 -12.5 -3 q-7.5 3 -7.5 11 ZM448 368 l0 -352 q0 -20 -14 -34 q-14 -14 -34 -14 l-352 0 q-20 0 -34 14 q-14 14 -14 34 l0 352 q0 20 14 34 q14 14 34 14 l352 0 q20 0 34 -14 q14 -14 14 -34 ZM400 22 l0 340 q0 6 -6 6 l-340 0 q-6 0 -6 -6 l0 -340 q0 -6 6 -6 l340 0 q6 0 6 6 Z" /><glyph glyph-name="file" unicode="&#xf15b;" d="M370 350 q14 -14 14 -34 l0 -332 q0 -20 -14 -34 q-14 -14 -34 -14 l-288 0 q-20 0 -34 14 q-14 14 -14 34 l0 416 q0 20 14 34 q14 14 34 14 l204 0 q20 0 34 -14 l84 -84 ZM332 320 l-76 76 l0 -76 l76 0 ZM48 -16 l288 0 l0 288 l-104 0 q-10 0 -17 7 q-7 7 -7 17 l0 104 l-160 0 l0 -416 Z" /><glyph glyph-name="file-alt" unicode="&#xf15c;" d="M288 200 l0 -28 q0 -12 -12 -12 l-168 0 q-12 0 -12 12 l0 28 q0 12 12 12 l168 0 q12 0 12 -12 ZM276 128 q12 0 12 -12 l0 -28 q0 -12 -12 -12 l-168 0 q-12 0 -12 12 l0 28 q0 12 12 12 l168 0 ZM384 316 l0 -332 q0 -20 -14 -34 q-14 -14 -34 -14 l-288 0 q-20 0 -34 14 q-14 14 -14 34 l0 416 q0 20 14 34 q14 14 34 14 l204 0 q20 0 34 -14 l84 -84 q14 -14 14 -34 ZM256 396 l0 -76 l76 0 l-76 76 ZM336 -16 l0 288 l-104 0 q-10 0 -17 7 q-7 7 -7 17 l0 104 l-160 0 l0 -416 l288 0 Z" /><glyph glyph-name="thumbs-up" unicode="&#xf164;" d="M466 161 q7 -33 -9 -63 q5 -36 -17 -67 q-1 -28 -12.5 -49 q-11.5 -21 -37 -33.5 q-25.5 -12.5 -63.5 -12.5 q-3 0 -11 0 q-8 0 -11 0 q-45 0 -79.5 10 q-34.5 10 -58 20 q-23.5 10 -40.5 10 q-3 -10 -11.5 -17 q-8.5 -7 -19.5 -7 l-64 0 q-13 0 -22.5 9.5 q-9.5 9.5 -9.5 22.5 l0 240 q0 13 9.5 22.5 q9.5 9.5 22.5 9.5 l99 0 q8 7 20 23 q12 16 25.5 33.5 q13.5 17.5 23.5 26.5 q3 4 9 33 q6 29 20.5 52.5 q14.5 23.5 41.5 23.5 q45 0 70.5 -26 q25.5 -26 25.5 -79 q0 -23 -9 -46 l36 0 q24 0 44 -12.5 q20 -12.5 31 -32 q11 -19.5 11 -41.5 q0 -26 -14 -50 ZM405 107 q15 15 15.5 35.5 q0.5 20.5 -10.5 30.5 q7 0 14.5 12 q7.5 12 7.5 26 q0 14 -11 26 q-11 12 -27 12 l-104 0 q0 18 14.5 46.5 q14.5 28.5 14.5 47.5 q0 10 -0.5 15.5 q-0.5 5.5 -3 14.5 q-2.5 9 -7 14 q-4.5 5 -14 9 q-9.5 4 -23.5 4 q-8 -8 -15 -43.5 q-7 -35.5 -23 -51.5 q-7 -7 -21 -25.5 q-14 -18.5 -25 -33 q-11 -14.5 -24.5 -26.5 q-13.5 -12 -23.5 -12 l-11 0 l0 -186 q25 0 79.5 -19 q54.5 -19 92.5 -19 l37 0 q64 0 54 66 q12 7 17 24 q5 17 -3 33 ZM81 -1 q7 7 7 17 q0 10 -7 17 q-7 7 -17 7 q-10 0 -17 -7 q-7 -7 -7 -17 q0 -10 7 -17 q7 -7 17 -7 q10 0 17 7 Z" /><glyph glyph-name="thumbs-down" unicode="&#xf165;" d="M466 223 q14 -24 14 -50 q0 -34 -25 -60 q-25 -26 -61 -26 l-36 0 q9 -23 9 -46 q0 -53 -25.5 -79 q-25.5 -26 -70.5 -26 q-27 0 -41.5 23.5 q-14.5 23.5 -20.5 52.5 q-6 29 -9 33 q-11 11 -35 42.5 q-24 31.5 -34 40.5 l-7 0 q-10 -16 -28 -16 l-64 0 q-13 0 -22.5 9.5 q-9.5 9.5 -9.5 22.5 l0 240 q0 13 9.5 22.5 q9.5 9.5 22.5 9.5 l64 0 q12 0 21 -8 l11 0 q15 0 38 10 q23 10 58.5 20 q35.5 10 80.5 10 q3 0 11 0 q8 0 11 0 q56 0 84 -25.5 q28 -25.5 29 -69.5 q22 -31 17 -67 q16 -30 9 -63 ZM47 159 q7 -7 17 -7 q10 0 17 7 q7 7 7 17 q0 10 -7 17 q-7 7 -17 7 q-10 0 -17 -7 q-7 -7 -7 -17 q0 -10 7 -17 ZM394 135 q10 0 19 5.5 q9 5.5 14 14.5 q5 9 5 18 q0 14 -7.5 26 q-7.5 12 -14.5 12 q11 10 10.5 30.5 q-0.5 20.5 -15.5 35.5 q8 16 3 33 q-5 17 -17 24 q10 66 -54 66 l-37 0 q-38 0 -92.5 -19 q-54.5 -19 -79.5 -19 l0 -186 l11 0 q12 0 29 -17.5 q17 -17.5 37 -44.5 q20 -27 28 -35 q16 -16 23 -51.5 q7 -35.5 15 -43.5 q17 0 27.5 5 q10.5 5 14.5 15 q4 10 5 17 q1 7 1 20 q0 19 -14.5 47.5 q-14.5 28.5 -14.5 46.5 l104 0 Z" /><glyph glyph-name="sun" unicode="&#xf185;" d="M494 226 q18 -12 18 -33.5 q0 -21.5 -18 -33.5 l-60 -41 l14 -71 q4 -21 -11 -36 q-15 -15 -36 -11 l-71 14 l-40 -60 q-13 -18 -34.5 -18 q-21.5 0 -33.5 18 l-40 60 l-71 -14 q-21 -4 -36 11 q-15 15 -11 37 l14 70 l-60 41 q-18 12 -18 33.5 q0 21.5 18 33.5 l60 41 l-14 71 q-4 21 11 36 q15 15 36 11 l71 -14 l40 60 q12 17 34 17 q22 0 34 -17 l40 -60 l71 14 q21 4 36 -11 q15 -15 11 -36 l-14 -71 l60 -41 ZM381 140 l77 53 l-77 52 l18 91 l-91 -18 l-52 77 l-52 -77 l-91 18 l18 -91 l-77 -52 l77 -52 l-18 -92 l91 18 l52 -77 l52 77 l91 -18 l-18 91 ZM182.5 265.5 q30.5 30.5 73.5 30.5 q43 0 73.5 -30.5 q30.5 -30.5 30.5 -73.5 q0 -43 -30.5 -73.5 q-30.5 -30.5 -73.5 -30.5 q-43 0 -73.5 30.5 q-30.5 30.5 -30.5 73.5 q0 43 30.5 73.5 ZM216.5 152.5 q16.5 -16.5 39.5 -16.5 q23 0 39.5 16.5 q16.5 16.5 16.5 39.5 q0 23 -16.5 39.5 q-16.5 16.5 -39.5 16.5 q-23 0 -39.5 -16.5 q-16.5 -16.5 -16.5 -39.5 q0 -23 16.5 -39.5 Z" /><glyph glyph-name="moon" unicode="&#xf186;" d="M279 -64 q-106 0 -181 75 q-75 75 -75 181 q0 106 75 181 q75 75 181 75 q24 0 47 -4 q21 -4 32 -21.5 q11 -17.5 6.5 -37.5 q-4.5 -20 -23.5 -30 q-31 -18 -49.5 -49 q-18.5 -31 -18.5 -67 q0 -63 48.5 -103 q48.5 -40 110.5 -28 q33 6 50 -22.5 q17 -28.5 -4 -54.5 q-36 -45 -88 -70 q-52 -25 -111 -25 ZM279 400 q-86 0 -147 -61 q-61 -61 -61 -147 q0 -86 61 -147 q61 -61 147 -61 q48 0 90.5 20.5 q42.5 20.5 71.5 56.5 q-84 -16 -150 38.5 q-66 54.5 -66 139.5 q0 50 25 92 q25 42 67 66 q-19 3 -38 3 Z" /><glyph glyph-name="caret-square-left" unicode="&#xf191;" d="M272 291 l0 -198 q0 -8 -7.5 -11 q-7.5 -3 -12.5 3 l-99 99 q-8 8 0 16 l99 99 q5 6 12.5 3 q7.5 -3 7.5 -11 ZM448 368 l0 -352 q0 -20 -14 -34 q-14 -14 -34 -14 l-352 0 q-20 0 -34 14 q-14 14 -14 34 l0 352 q0 20 14 34 q14 14 34 14 l352 0 q20 0 34 -14 q14 -14 14 -34 ZM400 22 l0 340 q0 6 -6 6 l-340 0 q-6 0 -6 -6 l0 -340 q0 -6 6 -6 l340 0 q6 0 6 6 Z" /><glyph glyph-name="dot-circle" unicode="&#xf192;" d="M397.5 333.5 q-58.5 58.5 -141.5 58.5 q-83 0 -141.5 -58.5 q-58.5 -58.5 -58.5 -141.5 q0 -83 58.5 -141.5 q58.5 -58.5 141.5 -58.5 q83 0 141.5 58.5 q58.5 58.5 58.5 141.5 q0 83 -58.5 141.5 ZM80.5 367.5 q72.5 72.5 175.5 72.5 q103 0 175.5 -72.5 q72.5 -72.5 72.5 -175.5 q0 -103 -72.5 -175.5 q-72.5 -72.5 -175.5 -72.5 q-103 0 -175.5 72.5 q-72.5 72.5 -72.5 175.5 q0 103 72.5 175.5 ZM199.5 248.5 q23.5 23.5 56.5 23.5 q33 0 56.5 -23.5 q23.5 -23.5 23.5 -56.5 q0 -33 -23.5 -56.5 q-23.5 -23.5 -56.5 -23.5 q-33 0 -56.5 23.5 q-23.5 23.5 -23.5 56.5 q0 33 23.5 56.5 Z" /><glyph glyph-name="building" unicode="&#xf1ad;" d="M128 300 l0 40 q0 12 12 12 l40 0 q12 0 12 -12 l0 -40 q0 -12 -12 -12 l-40 0 q-12 0 -12 12 ZM268 288 q-12 0 -12 12 l0 40 q0 12 12 12 l40 0 q12 0 12 -12 l0 -40 q0 -12 -12 -12 l-40 0 ZM140 192 q-12 0 -12 12 l0 40 q0 12 12 12 l40 0 q12 0 12 -12 l0 -40 q0 -12 -12 -12 l-40 0 ZM268 192 q-12 0 -12 12 l0 40 q0 12 12 12 l40 0 q12 0 12 -12 l0 -40 q0 -12 -12 -12 l-40 0 ZM192 108 q0 -12 -12 -12 l-40 0 q-12 0 -12 12 l0 40 q0 12 12 12 l40 0 q12 0 12 -12 l0 -40 ZM268 96 q-12 0 -12 12 l0 40 q0 12 12 12 l40 0 q12 0 12 -12 l0 -40 q0 -12 -12 -12 l-40 0 ZM448 -28 l0 -36 l-448 0 l0 36 q0 12 12 12 l20 0 l0 440 q0 10 7 17 q7 7 17 7 l336 0 q10 0 17 -7 q7 -7 7 -17 l0 -440 l20 0 q12 0 12 -12 ZM80 -15 l112 0 l0 67 q0 12 12 12 l40 0 q12 0 12 -12 l0 -67 l112 0 l0 414 l-288 1 l0 -415 Z" /><glyph glyph-name="file-pdf" unicode="&#xf1c1;" d="M370 350 q14 -14 14 -34 l0 -332 q0 -20 -14 -34 q-14 -14 -34 -14 l-288 0 q-20 0 -34 14 q-14 14 -14 34 l0 416 q0 20 14 34 q14 14 34 14 l204 0 q20 0 34 -14 l84 -84 ZM332 320 l-76 76 l0 -76 l76 0 ZM48 -16 l288 0 l0 288 l-104 0 q-10 0 -17 7 q-7 7 -7 17 l0 104 l-160 0 l0 -416 ZM298 128 q10 -8 5 -23.5 q-5 -15.5 -22 -15.5 q-25 0 -56 17 q-15 -3 -69 -20 q-39 -68 -66 -51 q-12 7 -10 20 q5 22 51 46 q16 28 36 74 q-13 48 -7 67 q3 15 21 14 q18 -1 21 -20 q5 -14 -5 -56 q12 -31 37 -46 q51 7 64 -6 ZM100 50 q0 -1 3.5 1.5 q3.5 2.5 11 11 q7.5 8.5 15.5 22.5 q-26 -25 -30 -35 ZM182 240 q-2 0 -2 -7 q0 -7 0.5 -17 q0.5 -10 3.5 -16 q3 6 3 23 q0 17 -5 17 ZM157 104 q45 17 55 19 q-18 13 -30 36 q-13 -35 -25 -55 ZM289 109 q5 3 -5.5 6 q-10.5 3 -31.5 2 q14 -6 23.5 -8 q9.5 -2 11.5 -1 l2 1 Z" /><glyph glyph-name="file-word" unicode="&#xf1c2;" d="M370 350 q14 -14 14 -34 l0 -332 q0 -20 -14 -34 q-14 -14 -34 -14 l-288 0 q-20 0 -34 14 q-14 14 -14 34 l0 416 q0 20 14 34 q14 14 34 14 l204 0 q20 0 34 -14 l84 -84 ZM332 320 l-76 76 l0 -76 l76 0 ZM48 -16 l288 0 l0 288 l-104 0 q-10 0 -17 7 q-7 7 -7 17 l0 104 l-160 0 l0 -416 ZM268 192 l16 0 q4 0 7 -2 q3 -2 4 -5.5 q1 -3.5 1 -7.5 q-10 -38 -35 -136 q-2 -9 -12 -9 l-24 0 q-10 0 -12 9 q-7 29 -18 72 l-3 17 q0 -8 -3 -17 l-18 -72 q-2 -9 -11 -9 l-25 0 q-10 0 -12 9 q-3 11 -9.5 38.5 q-6.5 27.5 -13.5 55.5 q-7 28 -10 42 q-2 6 2 10.5 q4 4.5 9 4.5 l17 0 q10 0 12 -10 q19 -96 19 -99 q0 -1 1 -4 q0 6 24 104 q3 9 12 9 l13 0 q10 0 12 -9 q23 -97 24 -100 q0 -1 0 -2.5 q0 -1.5 0 -1.5 q1 6 21 103 q2 10 12 10 Z" /><glyph glyph-name="file-excel" unicode="&#xf1c3;" d="M370 350 q14 -14 14 -34 l0 -332 q0 -20 -14 -34 q-14 -14 -34 -14 l-288 0 q-20 0 -34 14 q-14 14 -14 34 l0 416 q0 20 14 34 q14 14 34 14 l204 0 q20 0 34 -14 l84 -84 ZM332 320 l-76 76 l0 -76 l76 0 ZM48 -16 l288 0 l0 288 l-104 0 q-10 0 -17 7 q-7 7 -7 17 l0 104 l-160 0 l0 -416 ZM260 224 q7 0 10.5 -6 q3.5 -6 -0.5 -12 q-35 -61 -46 -78 l46 -78 q4 -6 0.5 -12 q-3.5 -6 -10.5 -6 l-29 0 q-7 0 -10 6 q-2 3 -29 58 q-12 -27 -29 -58 q-3 -6 -10 -6 l-29 0 q-7 0 -10.5 6 q-3.5 6 0.5 12 l46 78 l-46 78 q-4 6 -0.5 12 q3.5 6 10.5 6 l29 0 q7 0 11 -6 q9 -18 28 -58 q9 22 29 58 q3 6 10 6 l29 0 Z" /><glyph glyph-name="file-powerpoint" unicode="&#xf1c4;" d="M370 350 q14 -14 14 -34 l0 -332 q0 -20 -14 -34 q-14 -14 -34 -14 l-288 0 q-20 0 -34 14 q-14 14 -14 34 l0 416 q0 20 14 34 q14 14 34 14 l204 0 q20 0 34 -14 l84 -84 ZM332 320 l-76 76 l0 -76 l76 0 ZM48 -16 l288 0 l0 288 l-104 0 q-10 0 -17 7 q-7 7 -7 17 l0 104 l-160 0 l0 -416 ZM120 44 l0 168 q0 12 12 12 l69 0 q28 0 45.5 -18.5 q17.5 -18.5 17.5 -47.5 q0 -11 -2 -20 q-2 -9 -5 -15.5 q-3 -6.5 -8.5 -12 q-5.5 -5.5 -10 -8.5 q-4.5 -3 -12 -5.5 q-7.5 -2.5 -12.5 -3.5 q-5 -1 -13 -1.5 q-8 -0.5 -12 -0.5 q-4 0 -11.5 0 q-7.5 0 -9.5 0 l0 -47 q0 -5 -3.5 -8.5 q-3.5 -3.5 -8.5 -3.5 l-24 0 q-12 0 -12 12 ZM168 131 l24 0 q11 0 17.5 7.5 q6.5 7.5 6.5 19 q0 11.5 -6.5 18.5 q-6.5 7 -17.5 7 l-24 0 l0 -52 Z" /><glyph glyph-name="file-image" unicode="&#xf1c5;" d="M370 350 q14 -14 14 -34 l0 -332 q0 -20 -14 -34 q-14 -14 -34 -14 l-288 0 q-20 0 -34 14 q-14 14 -14 34 l0 416 q0 20 14 34 q14 14 34 14 l204 0 q20 0 34 -14 l84 -84 ZM332 320 l-76 76 l0 -76 l76 0 ZM48 -16 l288 0 l0 288 l-104 0 q-10 0 -17 7 q-7 7 -7 17 l0 104 l-160 0 l0 -416 ZM80 32 l0 64 l40 40 q8 8 16 0 l40 -40 l88 88 q8 8 16 0 l24 -24 l0 -128 l-224 0 ZM94 258 q14 14 34 14 q20 0 34 -14 q14 -14 14 -34 q0 -20 -14 -34 q-14 -14 -34 -14 q-20 0 -34 14 q-14 14 -14 34 q0 20 14 34 Z" /><glyph glyph-name="file-archive" unicode="&#xf1c6;" d="M128 288 l32 0 l0 -32 l-32 0 l0 32 ZM192 384 l0 -32 l-32 0 l0 32 l32 0 ZM128 352 l32 0 l0 -32 l-32 0 l0 32 ZM192 320 l0 -32 l-32 0 l0 32 l32 0 ZM370 350 q14 -14 14 -34 l0 -332 q0 -20 -14 -34 q-14 -14 -34 -14 l-288 0 q-20 0 -34 14 q-14 14 -14 34 l0 416 q0 20 14 34 q14 14 34 14 l204 0 q20 0 34 -14 l84 -84 ZM256 396 l0 -76 l76 0 l-76 76 ZM336 -16 l0 288 l-104 0 q-10 0 -17 7 q-7 7 -7 17 l0 104 l-48 0 l0 -16 l-32 0 l0 16 l-80 0 l0 -416 l288 0 ZM194 182 l18 -87 q3 -16 -3.5 -30.5 q-6.5 -14.5 -19.5 -23.5 q-13 -9 -29 -9 q-25 0 -40.5 19.5 q-15.5 19.5 -10.5 43.5 l19 97 l0 32 l32 0 l0 -32 l22 0 q10 0 12 -10 ZM137.5 66 q9.5 -8 23 -8 q13.5 0 23 8 q9.5 8 9.5 19 q0 7 -4.5 13.5 q-4.5 6.5 -12 10 q-7.5 3.5 -16.5 3.5 q-9 0 -16 -3.5 q-7 -3.5 -11.5 -10 q-4.5 -6.5 -4.5 -13.5 q0 -11 9.5 -19 ZM192 256 l0 -32 l-32 0 l0 32 l32 0 Z" /><glyph glyph-name="file-audio" unicode="&#xf1c7;" d="M370 350 q14 -14 14 -34 l0 -332 q0 -20 -14 -34 q-14 -14 -34 -14 l-288 0 q-20 0 -34 14 q-14 14 -14 34 l0 416 q0 20 14 34 q14 14 34 14 l204 0 q20 0 34 -14 l84 -84 ZM332 320 l-76 76 l0 -76 l76 0 ZM48 -16 l288 0 l0 288 l-104 0 q-10 0 -17 7 q-7 7 -7 17 l0 104 l-160 0 l0 -416 ZM192 60 q0 -8 -7.5 -11 q-7.5 -3 -12.5 3 l-36 36 l-28 0 q-5 0 -8.5 3.5 q-3.5 3.5 -3.5 8.5 l0 56 q0 4 3.5 8 q3.5 4 8.5 4 l28 0 l36 36 q5 6 12.5 3 q7.5 -3 7.5 -11 l0 -136 ZM233 107 q7 7 7 17 q0 10 -7 17 q-10 10 -5.5 23.5 q4.5 13.5 16.5 16.5 q12 3 24 -7 q20 -21 20 -50 q0 -29 -20 -50 q-11 -11 -24 -7 q-13 4 -16.5 16 q-3.5 12 5.5 24 Z" /><glyph glyph-name="file-video" unicode="&#xf1c8;" d="M370 350 q14 -14 14 -34 l0 -332 q0 -20 -14 -34 q-14 -14 -34 -14 l-288 0 q-20 0 -34 14 q-14 14 -14 34 l0 416 q0 20 14 34 q14 14 34 14 l204 0 q20 0 34 -14 l84 -84 ZM332 320 l-76 76 l0 -76 l76 0 ZM48 -16 l288 0 l0 288 l-104 0 q-10 0 -17 7 q-7 7 -7 17 l0 104 l-160 0 l0 -416 ZM277 195 q7 8 17 4 q10 -4 10 -15 l0 -112 q0 -11 -10 -15 q-10 -4 -17 4 l-53 52 l0 -37 q0 -8 -6 -14 q-6 -6 -14 -6 l-104 0 q-8 0 -14 6 q-6 6 -6 14 l0 104 q0 8 6 14 q6 6 14 6 l104 0 q8 0 14 -6 q6 -6 6 -14 l0 -37 l53 52 Z" /><glyph glyph-name="file-code" unicode="&#xf1c9;" d="M150 99 q6 -6 0 -13 l-17 -18 q-3 -3 -7 -3 q-3 0 -6 3 l-57 54 q-7 6 0 12 l57 54 q7 7 13 0 l17 -18 l0 -1 q6 -6 0 -12 l-33 -29 l33 -29 ZM370 350 q14 -14 14 -34 l0 -332 q0 -20 -14 -34 q-14 -14 -34 -14 l-288 0 q-20 0 -34 14 q-14 14 -14 34 l0 416 q0 20 14 34 q14 14 34 14 l204 0 q20 0 34 -14 l84 -84 ZM256 396 l0 -76 l76 0 l-76 76 ZM336 -16 l0 288 l-104 0 q-10 0 -17 7 q-7 7 -7 17 l0 104 l-160 0 l0 -416 l288 0 ZM210 234 l24 -7 q9 -2 6 -11 l-55 -188 q-2 -9 -11 -6 l-24 7 q-9 2 -6 11 l55 188 q2 8 11 6 ZM234 157 q-6 6 0 13 l17 18 q6 7 13 0 l57 -54 q7 -6 0 -12 l-57 -54 q-7 -7 -13 0 l-17 18 l0 1 q-6 6 0 12 l33 29 l-33 29 Z" /><glyph glyph-name="life-ring" unicode="&#xf1cd;" d="M431.5 16.5 q-72.5 -72.5 -175.5 -72.5 q-103 0 -175.5 72.5 q-72.5 72.5 -72.5 175.5 q0 103 72.5 175.5 q72.5 72.5 175.5 72.5 q103 0 175.5 -72.5 q72.5 -72.5 72.5 -175.5 q0 -103 -72.5 -175.5 ZM153 21 q47 -29 103 -29 q56 0 103 29 l-53 53 q-50 -21 -100 0 l-53 -53 ZM312.5 135.5 q23.5 23.5 23.5 56.5 q0 33 -23.5 56.5 q-23.5 23.5 -56.5 23.5 q-33 0 -56.5 -23.5 q-23.5 -23.5 -23.5 -56.5 q0 -33 23.5 -56.5 q23.5 -23.5 56.5 -23.5 q33 0 56.5 23.5 ZM427 89 q29 47 29 103 q0 56 -29 103 l-53 -53 q21 -50 0 -100 l53 -53 ZM359 363 q-47 29 -103 29 q-56 0 -103 -29 l53 -53 q50 21 100 0 l53 53 ZM85 295 q-29 -47 -29 -103 q0 -56 29 -103 l53 53 q-21 50 0 100 l-53 53 Z" /><glyph glyph-name="paper-plane" unicode="&#xf1d8;" d="M440 442 q26 14 51 -2.5 q25 -16.5 21 -46.5 l-60 -388 q-4 -23 -24 -34 q-11 -6 -23 -6 q-10 0 -19 3 l-112 46 l-43 -59 q-14 -17 -34.5 -19 q-20.5 -2 -36.5 12 q-16 14 -16 36 l0 84 l-114 48 q-28 11 -30 41 q-2 30 24 45 l416 240 ZM192 -16 l37 50 l-37 15 l0 -65 ZM405 13 l59 387 l-416 -240 l108 -45 l211 185 q11 9 21.5 -0.5 q10.5 -9.5 2.5 -21.5 l-140 -202 l154 -63 Z" /><glyph glyph-name="futbol" unicode="&#xf1e3;" d="M484 269 q32 -98 -15 -189.5 q-47 -91.5 -144 -123.5 q-38 -12 -77 -12 q-79 0 -145 47 q-66 47 -91 124 q-32 98 15 189.5 q47 91.5 144 123.5 q38 12 77 12 q52 0 99.5 -21 q47.5 -21 83.5 -60 q36 -39 53 -90 ZM409 75 q12 16 17 26 q21 42 22 89 l-39 37 l-71 -22 l-25 -76 l44 -61 l52 7 ZM409 310 q-37 52 -98 72 l-47 -26 l0 -74 l64 -47 l71 22 l10 53 ZM185 382 q-60 -20 -98 -72 l10 -53 l71 -22 l64 47 l0 74 l-47 26 ZM139 68 l43 62 l-24 74 l-71 23 l-39 -37 q1 -63 38 -115 l53 -7 ZM187 2 q58 -19 122 0 l22 48 l-44 61 l-79 0 l-43 -61 l22 -48 Z" /><glyph glyph-name="newspaper" unicode="&#xf1ea;" d="M552 384 q10 0 17 -7 q7 -7 7 -17 l0 -336 q0 -10 -7 -17 q-7 -7 -17 -7 l-496 0 q-23 0 -39.5 16.5 q-16.5 16.5 -16.5 39.5 l0 272 q0 10 7 17 q7 7 17 7 l43 0 q5 14 17.5 23 q12.5 9 27.5 9 l440 0 ZM48 56 q0 -8 8 -8 q8 0 8 8 l0 248 l-16 0 l0 -248 ZM528 48 l0 288 l-416 0 l0 -280 q0 -4 -1 -8 l417 0 ZM172 168 q-12 0 -12 12 l0 96 q0 12 12 12 l136 0 q12 0 12 -12 l0 -96 q0 -12 -12 -12 l-136 0 ZM200 248 l0 -40 l80 0 l0 40 l-80 0 ZM160 108 l0 24 q0 12 12 12 l136 0 q12 0 12 -12 l0 -24 q0 -12 -12 -12 l-136 0 q-12 0 -12 12 ZM352 108 l0 24 q0 12 12 12 l104 0 q12 0 12 -12 l0 -24 q0 -12 -12 -12 l-104 0 q-12 0 -12 12 ZM352 252 l0 24 q0 12 12 12 l104 0 q12 0 12 -12 l0 -24 q0 -12 -12 -12 l-104 0 q-12 0 -12 12 ZM352 180 l0 24 q0 12 12 12 l104 0 q12 0 12 -12 l0 -24 q0 -12 -12 -12 l-104 0 q-12 0 -12 12 Z" /><glyph glyph-name="bell-slash" unicode="&#xf1f6;" d="M634 -23 q12 -10 2 -23 l-10 -12 q-10 -12 -22 -2 l-598 467 q-12 10 -2 23 l10 12 q10 12 22 2 l598 -467 ZM164 80 l182 0 l62 -48 l-280 0 q-14 0 -23 9.5 q-9 9.5 -9 22.5 q0 12 9 22 q1 1 3 3 q8 9 12.5 14 q4.5 5 12.5 18 q8 13 12.5 26 q4.5 13 9 34 q4.5 21 4.5 45 l46 -35 q-9 -68 -41 -111 ZM320 352 q-34 0 -63 -19 l-38 29 q31 25 69 33 l0 21 q0 13 9.5 22.5 q9.5 9.5 22.5 9.5 q13 0 22.5 -9.5 q9.5 -9.5 9.5 -22.5 l0 -21 q37 -7 66 -29 q29 -22 45.5 -55 q16.5 -33 16.5 -71 q0 -55 14 -93 l-59 47 q-3 23 -3 45 q0 1 0 1 q0 46 -33 79 q-33 33 -79 33 ZM320 -64 q-26 0 -45 18.5 q-19 18.5 -19 45.5 l128 0 q0 -17 -8.5 -32 q-8.5 -15 -23.5 -23.5 q-15 -8.5 -32 -8.5 Z" /><glyph glyph-name="copyright" unicode="&#xf1f9;" d="M80.5 367.5 q72.5 72.5 175.5 72.5 q103 0 175.5 -72.5 q72.5 -72.5 72.5 -175.5 q0 -103 -72.5 -175.5 q-72.5 -72.5 -175.5 -72.5 q-103 0 -175.5 72.5 q-72.5 72.5 -72.5 175.5 q0 103 72.5 175.5 ZM114.5 50.5 q58.5 -58.5 141.5 -58.5 q83 0 141.5 58.5 q58.5 58.5 58.5 141.5 q0 83 -58.5 141.5 q-58.5 58.5 -141.5 58.5 q-83 0 -141.5 -58.5 q-58.5 -58.5 -58.5 -141.5 q0 -83 58.5 -141.5 ZM363 93 q-41 -41 -104 -41 q-61 0 -100.5 40.5 q-39.5 40.5 -39.5 100.5 q0 39 18 71 q18 32 50 50.5 q32 18.5 72 18.5 q59 0 97 -35 q4 -4 4 -9 q0 -3 -2 -6 l-18 -29 q-7 -11 -18 -2 q-28 22 -61 22 q-24 0 -42 -10.5 q-18 -10.5 -27 -29 q-9 -18.5 -9 -40.5 q0 -34 21 -59 q21 -25 57 -25 q36 0 66 27 q4 4 9 3.5 q5 -0.5 9 -4.5 l20 -27 q2 -4 2 -8 q0 -4 -4 -8 Z" /><glyph glyph-name="closed-captioning" unicode="&#xf20a;" d="M464 384 q20 0 34 -14 q14 -14 14 -34 l0 -288 q0 -20 -14 -34 q-14 -14 -34 -14 l-416 0 q-20 0 -34 14 q-14 14 -14 34 l0 288 q0 20 14 34 q14 14 34 14 l416 0 ZM458 48 q6 0 6 6 l0 276 q0 6 -6 6 l-404 0 q-6 0 -6 -6 l0 -276 q0 -6 6 -6 l404 0 ZM247 134 q3 -4 -1 -8 q-26 -28 -67 -30.5 q-41 -2.5 -73 24.5 q-32 27 -32 74 q0 46 32.5 72 q32.5 26 73.5 24.5 q41 -1.5 66 -26.5 q3 -3 1 -6 l-17 -30 q-4 -6 -10 -2 q-30 24 -62 13.5 q-32 -10.5 -32 -44.5 q0 -37 30.5 -48.5 q30.5 -11.5 61.5 15.5 q5 5 9 -1 l20 -27 ZM437 134 q3 -4 0 -8 q-27 -28 -68 -30.5 q-41 -2.5 -73 24.5 q-32 27 -32 74 q0 46 32.5 72 q32.5 26 73.5 24.5 q41 -1.5 66 -26.5 q3 -3 2 -6 l-18 -30 q-4 -6 -9 -2 q-31 24 -63 13.5 q-32 -10.5 -32 -44.5 q0 -37 31 -48.5 q31 -11.5 61 15.5 q6 5 10 -1 l19 -27 Z" /><glyph glyph-name="object-group" unicode="&#xf247;" d="M500 320 l-12 0 l0 -256 l12 0 q12 0 12 -12 l0 -72 q0 -12 -12 -12 l-72 0 q-12 0 -12 12 l0 12 l-320 0 l0 -12 q0 -12 -12 -12 l-72 0 q-12 0 -12 12 l0 72 q0 12 12 12 l12 0 l0 256 l-12 0 q-12 0 -12 12 l0 72 q0 12 12 12 l72 0 q12 0 12 -12 l0 -12 l320 0 l0 12 q0 12 12 12 l72 0 q12 0 12 -12 l0 -72 q0 -12 -12 -12 ZM448 384 l0 -32 l32 0 l0 32 l-32 0 ZM32 384 l0 -32 l32 0 l0 32 l-32 0 ZM64 0 l0 32 l-32 0 l0 -32 l32 0 ZM480 0 l0 32 l-32 0 l0 -32 l32 0 ZM440 64 l0 256 l-12 0 q-12 0 -12 12 l0 12 l-320 0 l0 -12 q0 -12 -12 -12 l-12 0 l0 -256 l12 0 q12 0 12 -12 l0 -12 l320 0 l0 12 q0 12 12 12 l12 0 ZM404 256 q12 0 12 -12 l0 -168 q0 -12 -12 -12 l-200 0 q-12 0 -12 12 l0 52 l-84 0 q-12 0 -12 12 l0 168 q0 12 12 12 l200 0 q12 0 12 -12 l0 -52 l84 0 ZM136 280 l0 -112 l144 0 l0 112 l-144 0 ZM376 104 l0 112 l-56 0 l0 -76 q0 -12 -12 -12 l-76 0 l0 -24 l144 0 Z" /><glyph glyph-name="object-ungroup" unicode="&#xf248;" d="M564 224 l-12 0 l0 -160 l12 0 q12 0 12 -12 l0 -72 q0 -12 -12 -12 l-72 0 q-12 0 -12 12 l0 12 l-224 0 l0 -12 q0 -12 -12 -12 l-72 0 q-12 0 -12 12 l0 72 q0 12 12 12 l12 0 l0 24 l-88 0 l0 -12 q0 -12 -12 -12 l-72 0 q-12 0 -12 12 l0 72 q0 12 12 12 l12 0 l0 160 l-12 0 q-12 0 -12 12 l0 72 q0 12 12 12 l72 0 q12 0 12 -12 l0 -12 l224 0 l0 12 q0 12 12 12 l72 0 q12 0 12 -12 l0 -72 q0 -12 -12 -12 l-12 0 l0 -24 l88 0 l0 12 q0 12 12 12 l72 0 q12 0 12 -12 l0 -72 q0 -12 -12 -12 ZM352 384 l0 -32 l32 0 l0 32 l-32 0 ZM352 128 l0 -32 l32 0 l0 32 l-32 0 ZM64 96 l0 32 l-32 0 l0 -32 l32 0 ZM64 352 l0 32 l-32 0 l0 -32 l32 0 ZM96 136 l224 0 l0 12 q0 12 12 12 l12 0 l0 160 l-12 0 q-12 0 -12 12 l0 12 l-224 0 l0 -12 q0 -12 -12 -12 l-12 0 l0 -160 l12 0 q12 0 12 -12 l0 -12 ZM224 0 l0 32 l-32 0 l0 -32 l32 0 ZM504 64 l0 160 l-12 0 q-12 0 -12 12 l0 12 l-88 0 l0 -88 l12 0 q12 0 12 -12 l0 -72 q0 -12 -12 -12 l-72 0 q-12 0 -12 12 l0 12 l-88 0 l0 -24 l12 0 q12 0 12 -12 l0 -12 l224 0 l0 12 q0 12 12 12 l12 0 ZM544 0 l0 32 l-32 0 l0 -32 l32 0 ZM544 256 l0 32 l-32 0 l0 -32 l32 0 Z" /><glyph glyph-name="sticky-note" unicode="&#xf249;" d="M448 100 q0 -20 -14 -34 l-84 -84 q-14 -14 -34 -14 l-268 0 q-20 0 -34 14 q-14 14 -14 34 l0 352 q0 20 14 34 q14 14 34 14 l352 0 q20 0 34 -14 q14 -14 14 -34 l0 -268 ZM320 20 l76 76 l-76 0 l0 -76 ZM400 368 l-352 0 l0 -352 l224 0 l0 104 q0 10 7 17 q7 7 17 7 l104 0 l0 224 Z" /><glyph glyph-name="clone" unicode="&#xf24d;" d="M464 448 q20 0 34 -14 q14 -14 14 -34 l0 -320 q0 -20 -14 -34 q-14 -14 -34 -14 l-48 0 l0 -48 q0 -20 -14 -34 q-14 -14 -34 -14 l-320 0 q-20 0 -34 14 q-14 14 -14 34 l0 320 q0 20 14 34 q14 14 34 14 l48 0 l0 48 q0 20 14 34 q14 14 34 14 l320 0 ZM362 -16 q6 0 6 6 l0 42 l-224 0 q-20 0 -34 14 q-14 14 -14 34 l0 224 l-42 0 q-6 0 -6 -6 l0 -308 q0 -6 6 -6 l308 0 ZM458 80 q6 0 6 6 l0 308 q0 6 -6 6 l-308 0 q-6 0 -6 -6 l0 -308 q0 -6 6 -6 l308 0 Z" /><glyph glyph-name="hourglass" unicode="&#xf254;" d="M368 400 q0 -63 -25 -120.5 q-25 -57.5 -72 -87.5 q47 -30 72 -87.5 q25 -57.5 25 -120.5 l4 0 q12 0 12 -12 l0 -24 q0 -12 -12 -12 l-360 0 q-12 0 -12 12 l0 24 q0 12 12 12 l4 0 q0 63 25 120.5 q25 57.5 72 87.5 q-47 30 -72 87.5 q-25 57.5 -25 120.5 l-4 0 q-12 0 -12 12 l0 24 q0 12 12 12 l360 0 q12 0 12 -12 l0 -24 q0 -12 -12 -12 l-4 0 ZM64 400 q0 -76 37.5 -130 q37.5 -54 90.5 -54 q53 0 90.5 54 q37.5 54 37.5 130 l-256 0 ZM320 -16 q0 76 -37.5 130 q-37.5 54 -90.5 54 q-53 0 -90.5 -54 q-37.5 -54 -37.5 -130 l256 0 Z" /><glyph glyph-name="hand-rock" unicode="&#xf255;" d="M409 369 q36 16 69.5 -6 q33.5 -22 33.5 -62 l0 -114 q0 -24 -9 -45 l-43 -100 q-4 -9 -4 -42 q0 -13 -9.5 -22.5 q-9.5 -9.5 -22.5 -9.5 l-252 0 q-13 0 -22.5 9.5 q-9.5 9.5 -9.5 22.5 q0 4 0 8 q0 4 0 6.5 q0 2.5 0 5 q0 2.5 0 4 q0 1.5 0 3 q0 1.5 -0.5 2.5 q-0.5 1 -0.5 1.5 q0 0.5 -0.5 1 q-0.5 0.5 -1.5 1.5 l-98 85 q-39 34 -39 86 l0 57 q0 35 28 57 q28 22 63 14 q2 41 38.5 61 q36.5 20 72.5 0 q22 23 54 23 q32 0 54 -23 q24 14 53 7.5 q29 -6.5 46 -31.5 ZM464 187 l0 114 q0 16 -13 22.5 q-13 6.5 -26 0 q-13 -6.5 -13 -21.5 q0 -7 -4.5 -11.5 q-4.5 -4.5 -11.5 -4.5 l-7 0 q-7 0 -11.5 4.5 q-4.5 4.5 -4.5 11.5 l0 26 q0 17 -13 23.5 q-13 6.5 -26 0 q-13 -6.5 -13 -22.5 l0 -27 q0 -7 -4.5 -11.5 q-4.5 -4.5 -11.5 -4.5 l-7 0 q-7 0 -11.5 4.5 q-4.5 4.5 -4.5 11.5 l0 40 q0 16 -13 23 q-13 7 -26 0.5 q-13 -6.5 -13 -22.5 l0 -41 q0 -7 -4.5 -11.5 q-4.5 -4.5 -11.5 -4.5 l-7 0 q-7 0 -11.5 4.5 q-4.5 4.5 -4.5 11.5 l0 26 q0 17 -13 23.5 q-13 6.5 -26 0 q-13 -6.5 -13 -22.5 l0 -116 q0 -7 -4.5 -11.5 q-4.5 -4.5 -11.5 -4.5 q-6 0 -11 4 l-7 6 q-5 4 -5 12 l0 41 q0 16 -13 22.5 q-13 6.5 -26 0 q-13 -6.5 -13 -21.5 l0 -57 q0 -30 23 -50 l97 -85 q20 -17 20 -43 l0 -10 l220 0 l0 7 q0 20 8 38 l43 100 q5 12 5 26 Z" /><glyph glyph-name="hand-paper" unicode="&#xf256;" d="M373 335 q29 5 52 -15.5 q23 -20.5 23 -50.5 l0 -132 q0 -23 -5 -45 l-30 -131 q-3 -11 -11.5 -18 q-8.5 -7 -20.5 -7 l-222 0 q-17 0 -27 13 l-119 169 q-16 22 -12 49.5 q4 27.5 26 43.5 q29 21 62 9 l0 126 q0 33 25.5 53 q25.5 20 57.5 12 q18 36 58 37 q40 1 60 -36 q31 8 57 -12.5 q26 -20.5 26 -53.5 l0 -11 ZM400 137 l0 132 q0 12 -9 17 q-9 5 -18.5 0 q-9.5 -5 -9.5 -18 l0 -76 q0 -7 -4.5 -11.5 q-4.5 -4.5 -11.5 -4.5 l-6 0 q-7 0 -11.5 4.5 q-4.5 4.5 -4.5 11.5 l0 154 q0 12 -9.5 17.5 q-9.5 5.5 -18.5 0.5 q-9 -5 -9 -17 l0 -155 q0 -7 -4.5 -11.5 q-4.5 -4.5 -11.5 -4.5 l-7 0 q-6 0 -11 4.5 q-5 4.5 -5 11.5 l0 188 q0 12 -9 17.5 q-9 5.5 -18 0.5 q-9 -5 -9 -17 l0 -189 q0 -7 -5 -11.5 q-5 -4.5 -11 -4.5 l-7 0 q-7 0 -11.5 4.5 q-4.5 4.5 -4.5 11.5 l0 153 q0 12 -9.5 17.5 q-9.5 5.5 -18.5 0.5 q-9 -5 -9 -17 l0 -206 q0 -12 -11 -15.5 q-11 -3.5 -18 5.5 l-27 38 q-4 6 -10 7.5 q-6 1.5 -11 -0.5 q-5 -2 -8.5 -6.5 q-3.5 -4.5 -3.5 -10.5 q0 -6 4 -12 l115 -162 l202 0 l27 119 q4 17 4 34 Z" /><glyph glyph-name="hand-scissors" unicode="&#xf257;" d="M256 -32 q-34 0 -54 27 q-20 27 -10 59 q-16 10 -24.5 27.5 q-8.5 17.5 -5.5 37.5 l-88 0 q-31 0 -52.5 21.5 q-21.5 21.5 -21.5 51.5 q0 30 21.5 51.5 q21.5 21.5 52.5 21.5 l94 -9 l-79 19 q-29 11 -41 39 q-12 28 -1 56 q11 28 39 40 q28 12 57 1 l145 -56 q43 53 92 25 l98 -55 q34 -19 34 -58 l0 -205 q0 -23 -14.5 -41.5 q-14.5 -18.5 -37.5 -23.5 l-119 -27 q-7 -2 -15 -2 l-70 0 ZM256 16 l70 0 q2 0 4 1 l119 27 q15 3 15 18 l0 205 q0 11 -9 16 l-98 55 q-15 8 -25 -4 l-22 -27 q-5 -6 -12 -6 q-3 0 -6 1 l-166 64 q-23 9 -33 -11 q-11 -21 8 -33 q3 -1 5 -3 l156 -59 q10 -4 10 -15 l0 -12 q0 -6 -4.5 -11 q-4.5 -5 -11.5 -5 l-182 0 q-16 0 -23 -12.5 q-7 -12.5 0 -25 q7 -12.5 23 -12.5 l182 0 q7 0 11.5 -5 q4.5 -5 4.5 -11 l0 -7 q0 -7 -4.5 -11.5 q-4.5 -4.5 -11.5 -4.5 l-28 0 q-12 0 -17 -9 q-5 -9 0 -18.5 q5 -9.5 17 -9.5 l28 0 q7 0 11.5 -4.5 q4.5 -4.5 4.5 -11.5 l0 -6 q0 -7 -4.5 -11.5 q-4.5 -4.5 -11.5 -4.5 q-12 0 -17 -9.5 q-5 -9.5 0 -18.5 q5 -9 17 -9 Z" /><glyph glyph-name="hand-lizard" unicode="&#xf258;" d="M557 157 q19 -29 19 -65 l0 -124 l-224 0 l0 72 l-100 38 q-4 2 -8 2 l-132 0 q-23 0 -39.5 16.5 q-16.5 16.5 -16.5 39.5 q0 36 26 62 q26 26 62 26 l114 0 l18 48 l-196 0 q-33 0 -56.5 23.5 q-23.5 23.5 -23.5 56.5 l0 8 q0 23 16.5 39.5 q16.5 16.5 39.5 16.5 l294 0 q39 0 60 -33 l147 -226 ZM528 16 l0 76 q0 21 -12 39 l-146 226 q-7 11 -20 11 l-294 0 q-8 0 -8 -8 l0 -8 q0 -13 9.5 -22.5 q9.5 -9.5 22.5 -9.5 l213 0 q19 0 30 -15.5 q11 -15.5 4 -33.5 l-24 -64 q-4 -9 -11 -16 q-7 -7 -16 -11 q-9 -4 -18 -4 l-114 0 q-17 0 -28.5 -11.5 q-11.5 -11.5 -11.5 -28.5 q0 -8 8 -8 l132 0 q13 0 26 -5 l99 -39 q14 -5 22.5 -17 q8.5 -12 8.5 -27 l0 -24 l128 0 Z" /><glyph glyph-name="hand-spock" unicode="&#xf259;" d="M21 66 q-20 19 -21 47 q-1 28 18 48 q18 19 44.5 21 q26.5 2 47.5 -15 l-31 136 q-7 31 12.5 56 q19.5 25 51.5 26 q1 22 15.5 39 q14.5 17 36.5 22 q27 6 50.5 -8.5 q23.5 -14.5 29.5 -41.5 l22 -132 l17 105 q6 27 30 41.5 q24 14.5 51 7.5 q20 -5 33 -20 q13 -15 17 -34 q32 0 52.5 -25.5 q20.5 -25.5 12.5 -57.5 l-32 -133 q-1 -6 -1 -12 l0 -37 q0 -17 -5 -33 l-32 -107 q-3 -10 -11.5 -16.5 q-8.5 -6.5 -18.5 -6.5 l-238 0 q-13 0 -22 9 l-129 121 ZM66.5 134 q-7.5 0 -13 -6 q-5.5 -6 -5.5 -13.5 q0 -7.5 6 -13.5 l124 -117 l220 0 l28 96 q3 9 3 19 l0 37 q0 12 3 23 l31 134 q3 11 -5 18 q-8 7 -18.5 4.5 q-10.5 -2.5 -12.5 -14.5 l-27 -113 q-3 -12 -16 -12 l-10 0 q-7 0 -12 6 q-5 6 -3 14 l38 152 q2 7 -1 13 q-3 6 -8 8.5 q-5 2.5 -10.5 2.5 q-5.5 0 -10.5 -3.5 q-5 -3.5 -7 -10.5 l-42 -170 q-3 -12 -16 -12 l-13 0 q-13 0 -16 12 l-45 197 q-3 12 -13 14.5 q-10 2.5 -18.5 -4.5 q-8.5 -7 -5.5 -18 l42 -181 q1 -4 0 -7.5 q-1 -3.5 -3 -6.5 q-2 -3 -5.5 -4.5 q-3.5 -1.5 -7.5 -1.5 l-8 0 q-13 0 -16 12 l-30 134 q-3 12 -13.5 14.5 q-10.5 2.5 -18.5 -4.5 q-8 -7 -6 -18 l35 -150 q0 -2 0 -4 l0 -69 q0 -11 -9.5 -15 q-9.5 -4 -17.5 3 l-53 50 q-6 5 -13.5 5 Z" /><glyph glyph-name="hand-pointer" unicode="&#xf25a;" d="M358 269 q33 12 61.5 -8 q28.5 -20 28.5 -55 l0 -84 q0 -8 -2 -15 l-27 -119 q-5 -23 -23.5 -37.5 q-18.5 -14.5 -41.5 -14.5 l-178 0 q-34 0 -54 28 l-109 154 q-16 22 -12 49.5 q4 27.5 26 43.5 q29 21 62 9 l0 161 q0 28 19.5 47.5 q19.5 19.5 47 19.5 q27.5 0 47 -19.5 q19.5 -19.5 19.5 -47.5 l0 -74 q33 5 56 -19 q21 10 43.5 4.5 q22.5 -5.5 36.5 -23.5 ZM81 168 q-7 10 -17.5 8 q-10.5 -2 -14 -11 q-3.5 -9 2.5 -19 l109 -154 q6 -8 15 -8 l178 0 q15 0 18 15 l27 119 q1 2 1 4 l0 84 q0 12 -9 17 q-9 5 -18.5 0 q-9.5 -5 -9.5 -17 q0 -4 -2 -8 q-2 -4 -5.5 -6 q-3.5 -2 -8.5 -2 l-6 0 q-7 0 -11.5 4.5 q-4.5 4.5 -4.5 11.5 l0 21 q0 12 -9.5 17 q-9.5 5 -18.5 0 q-9 -5 -9 -17 l0 -21 q0 -7 -4.5 -11.5 q-4.5 -4.5 -11.5 -4.5 l-7 0 q-4 0 -8 2 q-4 2 -6 6 q-2 4 -2 8 l0 35 q0 12 -9 17 q-9 5 -18 0 q-9 -5 -9 -17 l0 -35 q0 -4 -2.5 -8 q-2.5 -4 -6 -6 q-3.5 -2 -7.5 -2 l-7 0 q-7 0 -11.5 4.5 q-4.5 4.5 -4.5 11.5 l0 175 q0 12 -9.5 17 q-9.5 5 -18.5 0 q-9 -5 -9 -17 l0 -241 q0 -12 -11 -15.5 q-11 -3.5 -18 5.5 l-27 38 ZM176 48 l0 96 q0 7 4 11.5 q4 4.5 10 4.5 l6 0 q6 0 10 -4.5 q4 -4.5 4 -11.5 l0 -96 q0 -3 -1 -6 q-1 -3 -3 -5 q-2 -2 -4.5 -3.5 q-2.5 -1.5 -5.5 -1.5 l-6 0 q-6 0 -10 4.5 q-4 4.5 -4 11.5 ZM252 48 l0 96 q0 7 4 11.5 q4 4.5 10 4.5 l6 0 q5 0 9.5 -4.5 q4.5 -4.5 4.5 -11.5 l0 -96 q0 -7 -4.5 -11.5 q-4.5 -4.5 -9.5 -4.5 l-6 0 q-6 0 -10 4.5 q-4 4.5 -4 11.5 ZM327 48 l0 96 q0 16 14 16 l6 0 q14 0 14 -16 l0 -96 q0 -16 -14 -16 l-6 0 q-14 0 -14 16 Z" /><glyph glyph-name="hand-peace" unicode="&#xf25b;" d="M362 256 q21 7 41 0 q20 -7 32.5 -24.5 q12.5 -17.5 12.5 -39.5 l0 -70 q0 -8 -2 -15 l-27 -119 q-5 -23 -23.5 -37.5 q-18.5 -14.5 -41.5 -14.5 l-205 0 q-39 0 -58 34 l-55 98 q-28 49 25 92 l-56 145 q-11 29 1 57 q12 28 40 39 q20 7 38.5 4.5 q18.5 -2.5 34 -15 q15.5 -12.5 22.5 -31.5 l19 -79 l-9 94 q0 31 21.5 52.5 q21.5 21.5 51.5 21.5 q30 0 51.5 -21.5 q21.5 -21.5 21.5 -52.5 l0 -88 q20 3 37.5 -5.5 q17.5 -8.5 27.5 -24.5 ZM400 122 l0 70 q0 12 -9 17 q-9 5 -18.5 0 q-9.5 -5 -9.5 -17 q0 -7 -4.5 -11.5 q-4.5 -4.5 -11.5 -4.5 l-6 0 q-7 0 -11.5 4.5 q-4.5 4.5 -4.5 11.5 l0 28 q0 12 -9.5 17 q-9.5 5 -18.5 0 q-9 -5 -9 -17 l0 -28 q0 -7 -4.5 -11.5 q-4.5 -4.5 -11.5 -4.5 l-7 0 q-6 0 -11 4.5 q-5 4.5 -5 11.5 l0 182 q0 16 -12.5 23 q-12.5 7 -25 0 q-12.5 -7 -12.5 -23 l0 -182 q0 -7 -5 -11.5 q-5 -4.5 -11 -4.5 l-12 0 q-11 0 -15 10 l-59 156 q-6 15 -20 16.5 q-14 1.5 -23.5 -9.5 q-9.5 -11 -3.5 -27 l64 -166 q1 -3 1 -6 q0 -7 -6 -12 l-27 -22 q-12 -10 -4 -25 l55 -98 q5 -9 16 -9 l205 0 q15 0 18 15 l27 119 q1 2 1 4 Z" /><glyph glyph-name="registered" unicode="&#xf25d;" d="M80.5 367.5 q72.5 72.5 175.5 72.5 q103 0 175.5 -72.5 q72.5 -72.5 72.5 -175.5 q0 -103 -72.5 -175.5 q-72.5 -72.5 -175.5 -72.5 q-103 0 -175.5 72.5 q-72.5 72.5 -72.5 175.5 q0 103 72.5 175.5 ZM114.5 50.5 q58.5 -58.5 141.5 -58.5 q83 0 141.5 58.5 q58.5 58.5 58.5 141.5 q0 83 -58.5 141.5 q-58.5 58.5 -141.5 58.5 q-83 0 -141.5 -58.5 q-58.5 -58.5 -58.5 -141.5 q0 -83 58.5 -141.5 ZM366 74 q2 -3 2 -6.5 q0 -3.5 -1.5 -6 q-1.5 -2.5 -4.5 -4 q-3 -1.5 -6 -1.5 l-43 0 q-7 0 -10 6 l-48 90 l-32 0 l0 -84 q0 -5 -3.5 -8.5 q-3.5 -3.5 -8.5 -3.5 l-39 0 q-4 0 -8 3.5 q-4 3.5 -4 8.5 l0 248 q0 5 4 8.5 q4 3.5 8 3.5 l79 0 q102 0 102 -85 q0 -51 -40 -73 q2 -3 53 -96 ZM257 208 q32 0 32 33 q0 10 -2.5 16.5 q-2.5 6.5 -11.5 10.5 q-9 4 -25 4 l-27 0 l0 -64 l34 0 Z" /><glyph glyph-name="calendar-plus" unicode="&#xf271;" d="M336 156 l0 -24 q0 -12 -12 -12 l-76 0 l0 -76 q0 -12 -12 -12 l-24 0 q-12 0 -12 12 l0 76 l-76 0 q-12 0 -12 12 l0 24 q0 12 12 12 l76 0 l0 76 q0 12 12 12 l24 0 q12 0 12 -12 l0 -76 l76 0 q12 0 12 -12 ZM448 336 l0 -352 q0 -20 -14 -34 q-14 -14 -34 -14 l-352 0 q-20 0 -34 14 q-14 14 -14 34 l0 352 q0 20 14 34 q14 14 34 14 l48 0 l0 52 q0 12 12 12 l40 0 q12 0 12 -12 l0 -52 l128 0 l0 52 q0 12 12 12 l40 0 q12 0 12 -12 l0 -52 l48 0 q20 0 34 -14 q14 -14 14 -34 ZM400 -10 l0 298 l-352 0 l0 -298 q0 -6 6 -6 l340 0 q6 0 6 6 Z" /><glyph glyph-name="calendar-minus" unicode="&#xf272;" d="M124 120 q-12 0 -12 12 l0 24 q0 12 12 12 l200 0 q12 0 12 -12 l0 -24 q0 -12 -12 -12 l-200 0 ZM448 336 l0 -352 q0 -20 -14 -34 q-14 -14 -34 -14 l-352 0 q-20 0 -34 14 q-14 14 -14 34 l0 352 q0 20 14 34 q14 14 34 14 l48 0 l0 52 q0 12 12 12 l40 0 q12 0 12 -12 l0 -52 l128 0 l0 52 q0 12 12 12 l40 0 q12 0 12 -12 l0 -52 l48 0 q20 0 34 -14 q14 -14 14 -34 ZM400 -10 l0 298 l-352 0 l0 -298 q0 -6 6 -6 l340 0 q6 0 6 6 Z" /><glyph glyph-name="calendar-times" unicode="&#xf273;" d="M312 73 l-17 -17 q-9 -8 -17 0 l-54 54 l-54 -54 q-8 -8 -17 0 l-17 17 q-8 9 0 17 l54 54 l-54 54 q-8 8 0 17 l17 17 q9 8 17 0 l54 -54 l54 54 q8 8 17 0 l17 -17 q8 -9 0 -17 l-54 -54 l54 -54 q8 -8 0 -17 ZM448 336 l0 -352 q0 -20 -14 -34 q-14 -14 -34 -14 l-352 0 q-20 0 -34 14 q-14 14 -14 34 l0 352 q0 20 14 34 q14 14 34 14 l48 0 l0 52 q0 12 12 12 l40 0 q12 0 12 -12 l0 -52 l128 0 l0 52 q0 12 12 12 l40 0 q12 0 12 -12 l0 -52 l48 0 q20 0 34 -14 q14 -14 14 -34 ZM400 -10 l0 298 l-352 0 l0 -298 q0 -6 6 -6 l340 0 q6 0 6 6 Z" /><glyph glyph-name="calendar-check" unicode="&#xf274;" d="M400 384 q20 0 34 -14 q14 -14 14 -34 l0 -352 q0 -20 -14 -34 q-14 -14 -34 -14 l-352 0 q-20 0 -34 14 q-14 14 -14 34 l0 352 q0 20 14 34 q14 14 34 14 l48 0 l0 52 q0 12 12 12 l40 0 q12 0 12 -12 l0 -52 l128 0 l0 52 q0 12 12 12 l40 0 q12 0 12 -12 l0 -52 l48 0 ZM394 -16 q6 0 6 6 l0 298 l-352 0 l0 -298 q0 -6 6 -6 l340 0 ZM341 185 l-142 -142 q-9 -8 -17 1 l-75 75 q-9 9 0 17 l23 23 q8 8 17 0 l44 -45 l111 110 q8 9 17 0 l22 -22 q9 -9 0 -17 Z" /><glyph glyph-name="map" unicode="&#xf279;" d="M560 416 q6 0 11 -4.5 q5 -4.5 5 -11.5 l0 -346 q0 -6 -2.5 -12 q-2.5 -6 -7.5 -11 q-5 -5 -10 -7 l-152 -53 q-10 -3 -20 -3 q-10 0 -20 3 l-172 61 l-170 -63 q-3 -1 -6 -1 q-6 0 -11 4.5 q-5 4.5 -5 11.5 l0 346 q0 6 2.5 12 q2.5 6 7.5 11 q5 5 10 7 l152 53 q10 3 20 3 q10 0 20 -3 l172 -61 l170 63 q3 1 6 1 ZM224 358 l0 -286 l128 -46 l0 286 l-128 46 ZM48 30 l127 47 l1 0 l0 286 l-128 -44 l0 -289 ZM528 65 l0 289 l-127 -47 l-1 0 l0 -286 l128 44 Z" /><glyph glyph-name="comment-alt" unicode="&#xf27a;" d="M448 448 q26 0 45 -19 q19 -19 19 -45 l0 -288 q0 -26 -19 -45 q-19 -19 -45 -19 l-144 0 l-125 -94 q-3 -2 -7 -2 q-12 0 -12 12 l0 84 l-96 0 q-26 0 -45 19 q-19 19 -19 45 l0 288 q0 26 19 45 q19 19 45 19 l384 0 ZM464 96 l0 288 q0 7 -4.5 11.5 q-4.5 4.5 -11.5 4.5 l-384 0 q-7 0 -11.5 -4.5 q-4.5 -4.5 -4.5 -11.5 l0 -288 q0 -7 4.5 -11.5 q4.5 -4.5 11.5 -4.5 l144 0 l0 -60 l67 50 l13 10 l160 0 q7 0 11.5 4.5 q4.5 4.5 4.5 11.5 Z" /><glyph glyph-name="pause-circle" unicode="&#xf28b;" d="M80.5 367.5 q72.5 72.5 175.5 72.5 q103 0 175.5 -72.5 q72.5 -72.5 72.5 -175.5 q0 -103 -72.5 -175.5 q-72.5 -72.5 -175.5 -72.5 q-103 0 -175.5 72.5 q-72.5 72.5 -72.5 175.5 q0 103 72.5 175.5 ZM114.5 50.5 q58.5 -58.5 141.5 -58.5 q83 0 141.5 58.5 q58.5 58.5 58.5 141.5 q0 83 -58.5 141.5 q-58.5 58.5 -141.5 58.5 q-83 0 -141.5 -58.5 q-58.5 -58.5 -58.5 -141.5 q0 -83 58.5 -141.5 ZM352 272 l0 -160 q0 -7 -4.5 -11.5 q-4.5 -4.5 -11.5 -4.5 l-48 0 q-7 0 -11.5 4.5 q-4.5 4.5 -4.5 11.5 l0 160 q0 7 4.5 11.5 q4.5 4.5 11.5 4.5 l48 0 q7 0 11.5 -4.5 q4.5 -4.5 4.5 -11.5 ZM240 272 l0 -160 q0 -7 -4.5 -11.5 q-4.5 -4.5 -11.5 -4.5 l-48 0 q-7 0 -11.5 4.5 q-4.5 4.5 -4.5 11.5 l0 160 q0 7 4.5 11.5 q4.5 4.5 11.5 4.5 l48 0 q7 0 11.5 -4.5 q4.5 -4.5 4.5 -11.5 Z" /><glyph glyph-name="stop-circle" unicode="&#xf28d;" d="M431.5 367.5 q72.5 -72.5 72.5 -175.5 q0 -103 -72.5 -175.5 q-72.5 -72.5 -175.5 -72.5 q-103 0 -175.5 72.5 q-72.5 72.5 -72.5 175.5 q0 103 72.5 175.5 q72.5 72.5 175.5 72.5 q103 0 175.5 -72.5 ZM114.5 333.5 q-58.5 -58.5 -58.5 -141.5 q0 -83 58.5 -141.5 q58.5 -58.5 141.5 -58.5 q83 0 141.5 58.5 q58.5 58.5 58.5 141.5 q0 83 -58.5 141.5 q-58.5 58.5 -141.5 58.5 q-83 0 -141.5 -58.5 ZM352 272 l0 -160 q0 -7 -4.5 -11.5 q-4.5 -4.5 -11.5 -4.5 l-160 0 q-7 0 -11.5 4.5 q-4.5 4.5 -4.5 11.5 l0 160 q0 7 4.5 11.5 q4.5 4.5 11.5 4.5 l160 0 q7 0 11.5 -4.5 q4.5 -4.5 4.5 -11.5 Z" /><glyph glyph-name="handshake" unicode="&#xf2b5;" d="M519 320 l121 0 l0 -256 l-64 0 q-13 0 -22.5 9.5 q-9.5 9.5 -9.5 22.5 l-58 0 q-3 -13 -11 -23 l-26 -32 q-12 -15 -29.5 -19.5 q-17.5 -4.5 -34.5 2.5 q-19 -24 -49 -24 q-22 0 -41 16 q-23 -17 -52.5 -16 q-29.5 1 -52.5 20 l-85 76 l-9 0 q0 -9 -4.5 -16 q-4.5 -7 -11.5 -11.5 q-7 -4.5 -16 -4.5 l-64 0 l0 256 l118 0 l48 48 q16 16 39 16 l227 0 q23 0 40 -16 l47 -48 ZM36.5 101 q4.5 -5 11.5 -5 q7 0 11.5 5 q4.5 5 4.5 11.5 q0 6.5 -4.5 11 q-4.5 4.5 -11.5 4.5 q-7 0 -11.5 -4.5 q-4.5 -4.5 -4.5 -11 q0 -6.5 4.5 -11.5 ZM438 103 q5 7 -1 12 l-108 87 l-9 -7 q-18 -17 -40.5 -18.5 q-22.5 -1.5 -37 6 q-14.5 7.5 -23.5 16.5 q-20 22 -19 51.5 q1 29.5 23 50.5 l39 35 l-57 0 q-1 0 -2.5 -1 q-1.5 -1 -2.5 -1 l-62 -62 l-42 0 l0 -128 l28 0 l97 -88 q12 -10 28.5 -8 q16.5 2 26.5 15 l16 19 l37 -32 q9 -7 18 3 l30 36 l24 -19 q6 -5 11 1 l26 32 ZM544 144 l0 128 l-45 0 l-61 62 q-3 2 -6 2 l-84 0 q-15 0 -27 -11 l-65 -60 q-8 -6 -8 -16 q0 -10 7 -18 q6 -7 16.5 -6.5 q10.5 0.5 17.5 6.5 l55 51 q12 11 23 -1 l11 -12 q11 -12 -1 -22 l-13 -12 l103 -83 q4 -4 8 -8 l69 0 ZM580.5 101 q4.5 -5 11.5 -5 q7 0 11.5 5 q4.5 5 4.5 11.5 q0 6.5 -4.5 11 q-4.5 4.5 -11.5 4.5 q-7 0 -11.5 -4.5 q-4.5 -4.5 -4.5 -11 q0 -6.5 4.5 -11.5 Z" /><glyph glyph-name="envelope-open" unicode="&#xf2b6;" d="M495 283 q17 -14 17 -37 l0 -262 q0 -20 -14 -34 q-14 -14 -34 -14 l-416 0 q-20 0 -34 14 q-14 14 -14 34 l0 263 q0 22 18 37 q40 33 135 108 q3 3 12 10.5 q9 7.5 15 12.5 q6 5 16.5 12 q10.5 7 19 11 q8.5 4 19.5 7 q11 3 21 3 q10 0 21 -3 q11 -3 20 -7 q9 -4 19 -11.5 q10 -7.5 16 -12 q6 -4.5 15 -12 q9 -7.5 12 -10.5 q100 -79 136 -109 ZM464 -10 l0 254 q0 2 -2 4 q-81 66 -133 107 q-1 0 -14.5 11.5 q-13.5 11.5 -20.5 16.5 q-7 5 -18.5 11 q-11.5 6 -19.5 6 q-8 0 -19.5 -6 q-11.5 -6 -18.5 -10.5 q-7 -4.5 -20.5 -16.5 q-13.5 -12 -14.5 -12 q-47 -37 -133 -107 q-2 -1 -2 -4 l0 -254 q0 -6 6 -6 l404 0 q6 0 6 6 ZM432 178 q8 -10 -2 -17 q-55 -45 -71 -57 q-3 -3 -12 -10.5 q-9 -7.5 -15 -12.5 q-6 -5 -16.5 -12 q-10.5 -7 -19 -11 q-8.5 -4 -19.5 -7 q-11 -3 -21 -3 q-12 0 -24.5 3.5 q-12.5 3.5 -25 11.5 q-12.5 8 -19.5 13 q-7 5 -20 15.5 q-13 10.5 -14 12.5 q-16 12 -71 57 q-10 7 -2 17 l15 18 q8 9 17 2 q55 -44 71 -57 q1 0 14.5 -11.5 q13.5 -11.5 20.5 -16.5 q7 -5 18.5 -11 q11.5 -6 19.5 -6 q6 0 12.5 2.5 q6.5 2.5 12.5 6 q6 3.5 13.5 9 q7.5 5.5 13 9.5 q5.5 4 12 10 q6.5 6 9.5 8 q16 13 71 57 q9 7 17 -2 l15 -18 Z" /><glyph glyph-name="address-book" unicode="&#xf2b9;" d="M436 288 l-20 0 l0 -64 l20 0 q12 0 12 -12 l0 -40 q0 -12 -12 -12 l-20 0 l0 -64 l20 0 q12 0 12 -12 l0 -40 q0 -12 -12 -12 l-20 0 l0 -48 q0 -20 -14 -34 q-14 -14 -34 -14 l-320 0 q-20 0 -34 14 q-14 14 -14 34 l0 416 q0 20 14 34 q14 14 34 14 l320 0 q20 0 34 -14 q14 -14 14 -34 l0 -48 l20 0 q12 0 12 -12 l0 -40 q0 -12 -12 -12 ZM368 -16 l0 416 l-320 0 l0 -416 l320 0 ZM253 211 q-19 -19 -45 -19 q-26 0 -45 19 q-19 19 -19 45 q0 26 19 45 q19 19 45 19 q26 0 45 -19 q19 -19 19 -45 q0 -26 -19 -45 ZM118 64 q-9 0 -15.5 5.5 q-6.5 5.5 -6.5 13.5 l0 19 q0 24 19.5 41 q19.5 17 47.5 17 q4 0 17 -4 q13 -4 28 -4 q15 0 28 4 q13 4 17 4 q28 0 47.5 -17 q19.5 -17 19.5 -41 l0 -19 q0 -8 -6.5 -13.5 q-6.5 -5.5 -15.5 -5.5 l-180 0 Z" /><glyph glyph-name="address-card" unicode="&#xf2bb;" d="M528 416 q20 0 34 -14 q14 -14 14 -34 l0 -352 q0 -20 -14 -34 q-14 -14 -34 -14 l-480 0 q-20 0 -34 14 q-14 14 -14 34 l0 352 q0 20 14 34 q14 14 34 14 l480 0 ZM528 16 l0 352 l-480 0 l0 -352 l480 0 ZM253 211 q-19 -19 -45 -19 q-26 0 -45 19 q-19 19 -19 45 q0 26 19 45 q19 19 45 19 q26 0 45 -19 q19 -19 19 -45 q0 -26 -19 -45 ZM118 64 q-9 0 -15.5 5.5 q-6.5 5.5 -6.5 13.5 l0 19 q0 24 19.5 41 q19.5 17 47.5 17 q4 0 17 -4 q13 -4 28 -4 q15 0 28 4 q13 4 17 4 q28 0 47.5 -17 q19.5 -17 19.5 -41 l0 -19 q0 -8 -6.5 -13.5 q-6.5 -5.5 -15.5 -5.5 l-180 0 ZM360 128 q-8 0 -8 8 l0 16 q0 8 8 8 l112 0 q8 0 8 -8 l0 -16 q0 -8 -8 -8 l-112 0 ZM360 192 q-8 0 -8 8 l0 16 q0 8 8 8 l112 0 q8 0 8 -8 l0 -16 q0 -8 -8 -8 l-112 0 ZM360 256 q-8 0 -8 8 l0 16 q0 8 8 8 l112 0 q8 0 8 -8 l0 -16 q0 -8 -8 -8 l-112 0 Z" /><glyph glyph-name="user-circle" unicode="&#xf2bd;" d="M180 316 q28 28 68 28 q40 0 68 -28 q28 -28 28 -68 q0 -40 -28 -68 q-28 -28 -68 -28 q-40 0 -68 28 q-28 28 -28 68 q0 40 28 68 ZM214 214 q14 -14 34 -14 q20 0 34 14 q14 14 14 34 q0 20 -14 34 q-14 14 -34 14 q-20 0 -34 -14 q-14 -14 -14 -34 q0 -20 14 -34 ZM72.5 367.5 q72.5 72.5 175.5 72.5 q103 0 175.5 -72.5 q72.5 -72.5 72.5 -175.5 q0 -103 -72.5 -175.5 q-72.5 -72.5 -175.5 -72.5 q-103 0 -175.5 72.5 q-72.5 72.5 -72.5 175.5 q0 103 72.5 175.5 ZM118 40 q56 -48 130 -48 q74 0 130 48 q-24 38 -70 40 q-30 -10 -60 -10 q-29 0 -60 10 q-45 -1 -70 -40 ZM411 76 q37 52 37 116 q0 83 -58.5 141.5 q-58.5 58.5 -141.5 58.5 q-83 0 -141.5 -58.5 q-58.5 -58.5 -58.5 -141.5 q0 -64 37 -116 q41 52 105 52 q3 0 21.5 -5 q18.5 -5 36.5 -5 q18 0 36.5 5 q18.5 5 21.5 5 q64 0 105 -52 Z" /><glyph glyph-name="id-badge" unicode="&#xf2c1;" d="M336 448 q20 0 34 -14 q14 -14 14 -34 l0 -416 q0 -20 -14 -34 q-14 -14 -34 -14 l-288 0 q-20 0 -34 14 q-14 14 -14 34 l0 416 q0 20 14 34 q14 14 34 14 l288 0 ZM336 -16 l0 416 l-288 0 l0 -416 l288 0 ZM144 336 q-7 0 -11.5 4.5 q-4.5 4.5 -4.5 11.5 q0 7 4.5 11.5 q4.5 4.5 11.5 4.5 l96 0 q7 0 11.5 -4.5 q4.5 -4.5 4.5 -11.5 q0 -7 -4.5 -11.5 q-4.5 -4.5 -11.5 -4.5 l-96 0 ZM237 179 q-19 -19 -45 -19 q-26 0 -45 19 q-19 19 -19 45 q0 26 19 45 q19 19 45 19 q26 0 45 -19 q19 -19 19 -45 q0 -26 -19 -45 ZM102 32 q-9 0 -15.5 5.5 q-6.5 5.5 -6.5 13.5 l0 19 q0 24 19.5 41 q19.5 17 47.5 17 q4 0 17 -4 q13 -4 28 -4 q15 0 28 4 q13 4 17 4 q28 0 47.5 -17 q19.5 -17 19.5 -41 l0 -19 q0 -8 -6.5 -13.5 q-6.5 -5.5 -15.5 -5.5 l-180 0 Z" /><glyph glyph-name="id-card" unicode="&#xf2c2;" d="M528 416 q20 0 34 -14 q14 -14 14 -34 l0 -352 q0 -20 -14 -34 q-14 -14 -34 -14 l-480 0 q-20 0 -34 14 q-14 14 -14 34 l0 352 q0 20 14 34 q14 14 34 14 l480 0 ZM528 16 l0 288 l-480 0 l0 -288 l33 0 q-1 4 -1 22 q0 24 19.5 41 q19.5 17 47.5 17 q4 0 17 -4 q13 -4 28 -4 q15 0 28 4 q13 4 17 4 q28 0 47.5 -17 q19.5 -17 19.5 -41 q0 -18 -1 -22 l225 0 ZM360 96 q-8 0 -8 8 l0 16 q0 8 8 8 l112 0 q8 0 8 -8 l0 -16 q0 -8 -8 -8 l-112 0 ZM360 160 q-8 0 -8 8 l0 16 q0 8 8 8 l112 0 q8 0 8 -8 l0 -16 q0 -8 -8 -8 l-112 0 ZM360 224 q-8 0 -8 8 l0 16 q0 8 8 8 l112 0 q8 0 8 -8 l0 -16 q0 -8 -8 -8 l-112 0 ZM237 147 q-19 -19 -45 -19 q-26 0 -45 19 q-19 19 -19 45 q0 26 19 45 q19 19 45 19 q26 0 45 -19 q19 -19 19 -45 q0 -26 -19 -45 Z" /><glyph glyph-name="window-maximize" unicode="&#xf2d0;" d="M464 416 q20 0 34 -14 q14 -14 14 -34 l0 -352 q0 -20 -14 -34 q-14 -14 -34 -14 l-416 0 q-20 0 -34 14 q-14 14 -14 34 l0 352 q0 20 14 34 q14 14 34 14 l416 0 ZM464 22 l0 234 l-416 0 l0 -234 q0 -6 6 -6 l404 0 q6 0 6 6 Z" /><glyph glyph-name="window-minimize" unicode="&#xf2d1;" d="M480 -32 l-448 0 q-13 0 -22.5 9.5 q-9.5 9.5 -9.5 22.5 q0 13 9.5 22.5 q9.5 9.5 22.5 9.5 l448 0 q13 0 22.5 -9.5 q9.5 -9.5 9.5 -22.5 q0 -13 -9.5 -22.5 q-9.5 -9.5 -22.5 -9.5 Z" /><glyph glyph-name="window-restore" unicode="&#xf2d2;" d="M464 448 q20 0 34 -14 q14 -14 14 -34 l0 -320 q0 -20 -14 -34 q-14 -14 -34 -14 l-48 0 l0 -48 q0 -20 -14 -34 q-14 -14 -34 -14 l-320 0 q-20 0 -34 14 q-14 14 -14 34 l0 320 q0 20 14 34 q14 14 34 14 l48 0 l0 48 q0 20 14 34 q14 14 34 14 l320 0 ZM368 -16 l0 208 l-320 0 l0 -208 l320 0 ZM464 80 l0 320 l-320 0 l0 -48 l224 0 q20 0 34 -14 q14 -14 14 -34 l0 -224 l48 0 Z" /><glyph glyph-name="snowflake" unicode="&#xf2dc;" d="M440 93 q6 -4 7.5 -10 q1.5 -6 -1.5 -12 l-8 -14 q-8 -14 -22 -6 l-39 23 l9 -34 q1 -5 0 -9 q-1 -4 -4 -7 q-3 -3 -7 -4 l-15 -4 q-6 -2 -12 1.5 q-6 3.5 -8 9.5 l-21 81 l-72 42 l0 -84 l59 -59 q11 -12 0 -23 l-12 -11 q-11 -12 -22 0 l-25 25 l0 -46 q0 -7 -4.5 -11.5 q-4.5 -4.5 -10.5 -4.5 l-16 0 q-7 0 -11.5 4.5 q-4.5 4.5 -4.5 11.5 l0 46 l-25 -26 q-11 -11 -22 0 l-11 12 q-4 4 -4 11 q0 7 4 11 l58 60 l0 84 l-72 -42 l-21 -81 q-2 -6 -7.5 -9.5 q-5.5 -3.5 -11.5 -1.5 l-15 4 q-7 2 -10 7.5 q-3 5.5 -1 11.5 l9 35 l-39 -23 q-6 -3 -12.5 -1.5 q-6.5 1.5 -9.5 7.5 l-8 14 q-8 14 6 22 l39 23 l-34 9 q-6 2 -9.5 7.5 q-3.5 5.5 -1.5 12.5 l4 15 q2 7 7.5 10 q5.5 3 11.5 2 l80 -22 l72 42 l-72 42 l-80 -22 q-6 -1 -11.5 2 q-5.5 3 -7.5 10 l-4 15 q-2 7 1.5 12.5 q3.5 5.5 9.5 7.5 l34 9 l-39 23 q-14 8 -6 22 l8 14 q8 14 22 6 l39 -23 l-9 34 q-2 7 1 12.5 q3 5.5 10 7.5 l15 4 q6 2 12 -1.5 q6 -3.5 7 -9.5 l21 -81 l72 -42 l0 84 l-58 59 q-11 12 0 23 l12 11 q11 12 22 0 l25 -25 l0 46 q0 7 4.5 11.5 q4.5 4.5 10.5 4.5 l16 0 q7 0 11.5 -4.5 q4.5 -4.5 4.5 -11.5 l0 -46 l25 26 q11 11 22 0 l11 -12 q11 -11 0 -22 l-58 -60 l0 -84 l72 42 l21 81 q2 6 7.5 9.5 q5.5 3.5 11.5 1.5 l15 -4 q7 -2 10 -7.5 q3 -5.5 1 -11.5 l-9 -35 l40 23 q5 3 11.5 1.5 q6.5 -1.5 9.5 -7.5 l8 -14 q8 -14 -6 -22 l-39 -23 l34 -9 q6 -2 9.5 -7.5 q3.5 -5.5 1.5 -12.5 l-4 -15 q-2 -7 -7.5 -10 q-5.5 -3 -11.5 -2 l-80 22 l-72 -42 l72 -42 l80 22 q6 1 11.5 -2 q5.5 -3 7.5 -10 l4 -15 q2 -7 -1.5 -12.5 q-3.5 -5.5 -9.5 -7.5 l-34 -9 l39 -23 Z" /><glyph glyph-name="trash-alt" unicode="&#xf2ed;" d="M268 32 q-12 0 -12 12 l0 216 q0 12 12 12 l24 0 q12 0 12 -12 l0 -216 q0 -12 -12 -12 l-24 0 ZM432 368 q7 0 11.5 -4.5 q4.5 -4.5 4.5 -11.5 l0 -16 q0 -7 -4.5 -11.5 q-4.5 -4.5 -11.5 -4.5 l-16 0 l0 -336 q0 -20 -14 -34 q-14 -14 -34 -14 l-288 0 q-20 0 -34 14 q-14 14 -14 34 l0 336 l-16 0 q-7 0 -11.5 4.5 q-4.5 4.5 -4.5 11.5 l0 16 q0 7 4.5 11.5 q4.5 4.5 11.5 4.5 l82 0 l34 57 q6 9 18 16 q12 7 24 7 l100 0 q8 0 16 -3 q8 -3 15 -8.5 q7 -5.5 11 -11.5 l34 -57 l82 0 ZM172 397 l-18 -29 l140 0 l-18 29 q-2 3 -5 3 l-94 0 q-3 0 -5 -3 ZM368 -16 l0 336 l-288 0 l0 -336 l288 0 ZM156 32 q-12 0 -12 12 l0 216 q0 12 12 12 l24 0 q12 0 12 -12 l0 -216 q0 -12 -12 -12 l-24 0 Z" /><glyph glyph-name="images" unicode="&#xf302;" d="M480 32 l0 -16 q0 -20 -14 -34 q-14 -14 -34 -14 l-384 0 q-20 0 -34 14 q-14 14 -14 34 l0 256 q0 20 14 34 q14 14 34 14 l16 0 l0 -48 l-10 0 q-6 0 -6 -6 l0 -244 q0 -6 6 -6 l372 0 q6 0 6 6 l0 10 l48 0 ZM522 368 l-372 0 q-6 0 -6 -6 l0 -244 q0 -6 6 -6 l372 0 q6 0 6 6 l0 244 q0 6 -6 6 ZM528 416 q20 0 34 -14 q14 -14 14 -34 l0 -256 q0 -20 -14 -34 q-14 -14 -34 -14 l-384 0 q-20 0 -34 14 q-14 14 -14 34 l0 256 q0 20 14 34 q14 14 34 14 l384 0 ZM252.5 332.5 q11.5 -11.5 11.5 -28.5 q0 -17 -11.5 -28.5 q-11.5 -11.5 -28.5 -11.5 q-17 0 -28.5 11.5 q-11.5 11.5 -11.5 28.5 q0 17 11.5 28.5 q11.5 11.5 28.5 11.5 q17 0 28.5 -11.5 ZM192 208 l40 40 q8 8 16 0 l40 -40 l104 104 q8 8 16 0 l72 -72 l0 -80 l-288 0 l0 48 Z" /><glyph glyph-name="clipboard" unicode="&#xf328;" d="M336 384 q20 0 34 -14 q14 -14 14 -34 l0 -352 q0 -20 -14 -34 q-14 -14 -34 -14 l-288 0 q-20 0 -34 14 q-14 14 -14 34 l0 352 q0 20 14 34 q14 14 34 14 l80 0 q0 26 19 45 q19 19 45 19 q26 0 45 -19 q19 -19 19 -45 l80 0 ZM209 401 q-7 7 -17 7 q-10 0 -17 -7 q-7 -7 -7 -17 q0 -10 7 -17 q7 -7 17 -7 q10 0 17 7 q7 7 7 17 q0 10 -7 17 ZM336 -10 l0 340 q0 6 -6 6 l-42 0 l0 -36 q0 -12 -12 -12 l-168 0 q-12 0 -12 12 l0 36 l-42 0 q-6 0 -6 -6 l0 -340 q0 -6 6 -6 l276 0 q6 0 6 6 Z" /><glyph glyph-name="arrow-alt-circle-down" unicode="&#xf358;" d="M80.5 367.5 q72.5 72.5 175.5 72.5 q103 0 175.5 -72.5 q72.5 -72.5 72.5 -175.5 q0 -103 -72.5 -175.5 q-72.5 -72.5 -175.5 -72.5 q-103 0 -175.5 72.5 q-72.5 72.5 -72.5 175.5 q0 103 72.5 175.5 ZM114.5 50.5 q58.5 -58.5 141.5 -58.5 q83 0 141.5 58.5 q58.5 58.5 58.5 141.5 q0 83 -58.5 141.5 q-58.5 58.5 -141.5 58.5 q-83 0 -141.5 -58.5 q-58.5 -58.5 -58.5 -141.5 q0 -83 58.5 -141.5 ZM224 308 q0 12 12 12 l40 0 q12 0 12 -12 l0 -116 l67 0 q8 0 11 -7.5 q3 -7.5 -2 -12.5 l-100 -100 q-8 -8 -16 0 l-100 100 q-5 5 -2 12.5 q3 7.5 11 7.5 l67 0 l0 116 Z" /><glyph glyph-name="arrow-alt-circle-left" unicode="&#xf359;" d="M80.5 16.5 q-72.5 72.5 -72.5 175.5 q0 103 72.5 175.5 q72.5 72.5 175.5 72.5 q103 0 175.5 -72.5 q72.5 -72.5 72.5 -175.5 q0 -103 -72.5 -175.5 q-72.5 -72.5 -175.5 -72.5 q-103 0 -175.5 72.5 ZM397.5 50.5 q58.5 58.5 58.5 141.5 q0 83 -58.5 141.5 q-58.5 58.5 -141.5 58.5 q-83 0 -141.5 -58.5 q-58.5 -58.5 -58.5 -141.5 q0 -83 58.5 -141.5 q58.5 -58.5 141.5 -58.5 q83 0 141.5 58.5 ZM384 212 l0 -40 q0 -12 -12 -12 l-116 0 l0 -67 q0 -8 -7.5 -11 q-7.5 -3 -12.5 2 l-100 100 q-8 8 0 16 l100 100 q5 5 12.5 2 q7.5 -3 7.5 -11 l0 -67 l116 0 q12 0 12 -12 Z" /><glyph glyph-name="arrow-alt-circle-right" unicode="&#xf35a;" d="M431.5 367.5 q72.5 -72.5 72.5 -175.5 q0 -103 -72.5 -175.5 q-72.5 -72.5 -175.5 -72.5 q-103 0 -175.5 72.5 q-72.5 72.5 -72.5 175.5 q0 103 72.5 175.5 q72.5 72.5 175.5 72.5 q103 0 175.5 -72.5 ZM114.5 333.5 q-58.5 -58.5 -58.5 -141.5 q0 -83 58.5 -141.5 q58.5 -58.5 141.5 -58.5 q83 0 141.5 58.5 q58.5 58.5 58.5 141.5 q0 83 -58.5 141.5 q-58.5 58.5 -141.5 58.5 q-83 0 -141.5 -58.5 ZM128 172 l0 40 q0 12 12 12 l116 0 l0 67 q0 8 7.5 11 q7.5 3 12.5 -2 l100 -100 q8 -8 0 -16 l-100 -100 q-5 -5 -12.5 -2 q-7.5 3 -7.5 11 l0 67 l-116 0 q-12 0 -12 12 Z" /><glyph glyph-name="arrow-alt-circle-up" unicode="&#xf35b;" d="M431.5 16.5 q-72.5 -72.5 -175.5 -72.5 q-103 0 -175.5 72.5 q-72.5 72.5 -72.5 175.5 q0 103 72.5 175.5 q72.5 72.5 175.5 72.5 q103 0 175.5 -72.5 q72.5 -72.5 72.5 -175.5 q0 -103 -72.5 -175.5 ZM397.5 333.5 q-58.5 58.5 -141.5 58.5 q-83 0 -141.5 -58.5 q-58.5 -58.5 -58.5 -141.5 q0 -83 58.5 -141.5 q58.5 -58.5 141.5 -58.5 q83 0 141.5 58.5 q58.5 58.5 58.5 141.5 q0 83 -58.5 141.5 ZM276 64 l-40 0 q-12 0 -12 12 l0 116 l-67 0 q-8 0 -11 7.5 q-3 7.5 2 12.5 l100 100 q8 8 16 0 l100 -100 q5 -5 2 -12.5 q-3 -7.5 -11 -7.5 l-67 0 l0 -116 q0 -12 -12 -12 Z" /><glyph glyph-name="gem" unicode="&#xf3a5;" d="M464 448 q6 0 10 -5 l100 -148 q5 -7 -1 -14 l-276 -341 q-3 -4 -9 -4 q-6 0 -9 4 l-276 341 q-6 7 -1 14 l100 148 q3 5 10 5 l352 0 ZM445 400 l-57 0 l52 -96 l68 0 l-63 96 ZM243 400 l-52 -96 l194 0 l-52 96 l-90 0 ZM131 400 l-63 -96 l68 0 l52 96 l-57 0 ZM88 256 l120 -160 l-68 160 l-52 0 ZM191 256 l97 -243 l97 243 l-194 0 ZM368 96 l120 160 l-52 0 l-68 -160 Z" /><glyph glyph-name="money-bill-alt" unicode="&#xf3d1;" d="M252 271 q28 33 68 33 q40 0 68 -33 q28 -33 28 -79 q0 -46 -28 -79 q-28 -33 -68 -33 q-40 0 -68 33 q-28 33 -28 79 q0 46 28 79 ZM360 136 l0 16 q0 8 -8 8 l-16 0 l0 88 q0 8 -8 8 l-14 0 q-7 0 -13 -4 l-15 -10 q-4 -3 -4 -7 q0 -2 2 -4 l8 -14 q3 -3 7 -3 q3 0 5 1 l0 -55 l-16 0 q-8 0 -8 -8 l0 -16 q0 -8 8 -8 l64 0 q8 0 8 8 ZM608 384 q13 0 22.5 -9.5 q9.5 -9.5 9.5 -22.5 l0 -320 q0 -13 -9.5 -22.5 q-9.5 -9.5 -22.5 -9.5 l-576 0 q-13 0 -22.5 9.5 q-9.5 9.5 -9.5 22.5 l0 320 q0 13 9.5 22.5 q9.5 9.5 22.5 9.5 l576 0 ZM592 112 l0 160 q-27 0 -45.5 18.5 q-18.5 18.5 -18.5 45.5 l-416 0 q0 -27 -18.5 -45.5 q-18.5 -18.5 -45.5 -18.5 l0 -160 q27 0 45.5 -18.5 q18.5 -18.5 18.5 -45.5 l416 0 q0 27 18.5 45.5 q18.5 18.5 45.5 18.5 Z" /><glyph glyph-name="window-close" unicode="&#xf410;" d="M464 416 q20 0 34 -14 q14 -14 14 -34 l0 -352 q0 -20 -14 -34 q-14 -14 -34 -14 l-416 0 q-20 0 -34 14 q-14 14 -14 34 l0 352 q0 20 14 34 q14 14 34 14 l416 0 ZM464 22 l0 340 q0 6 -6 6 l-404 0 q-6 0 -6 -6 l0 -340 q0 -6 6 -6 l404 0 q6 0 6 6 ZM356 253 l-61 -61 l61 -61 q9 -9 0 -17 l-22 -22 q-8 -9 -17 0 l-61 61 l-61 -61 q-9 -9 -17 0 l-22 22 q-9 8 0 17 l61 61 l-61 61 q-9 9 0 17 l22 22 q8 9 17 0 l61 -61 l61 61 q9 9 17 0 l22 -22 q9 -8 0 -17 Z" /><glyph glyph-name="comment-dots" unicode="&#xf4ad;" d="M121.5 230.5 q9.5 9.5 22.5 9.5 q13 0 22.5 -9.5 q9.5 -9.5 9.5 -22.5 q0 -13 -9.5 -22.5 q-9.5 -9.5 -22.5 -9.5 q-13 0 -22.5 9.5 q-9.5 9.5 -9.5 22.5 q0 13 9.5 22.5 ZM233.5 230.5 q9.5 9.5 22.5 9.5 q13 0 22.5 -9.5 q9.5 -9.5 9.5 -22.5 q0 -13 -9.5 -22.5 q-9.5 -9.5 -22.5 -9.5 q-13 0 -22.5 9.5 q-9.5 9.5 -9.5 22.5 q0 13 9.5 22.5 ZM345.5 230.5 q9.5 9.5 22.5 9.5 q13 0 22.5 -9.5 q9.5 -9.5 9.5 -22.5 q0 -13 -9.5 -22.5 q-9.5 -9.5 -22.5 -9.5 q-13 0 -22.5 9.5 q-9.5 9.5 -9.5 22.5 q0 13 9.5 22.5 ZM75 355 q75 61 181 61 q106 0 181 -61 q75 -61 75 -147 q0 -86 -75 -147 q-75 -61 -181 -61 q-47 0 -93 14 q-65 -46 -139 -46 q-16 0 -22 14.5 q-6 14.5 4 25.5 q2 2 9.5 10.5 q7.5 8.5 19 27 q11.5 18.5 18.5 36.5 q-53 56 -53 126 q0 86 75 147 ZM256 48 q86 0 147 47 q61 47 61 113 q0 66 -61 113 q-61 47 -147 47 q-86 0 -147 -47 q-61 -47 -61 -113 q0 -51 40 -93 l20 -22 l-10 -28 q-8 -20 -20 -41 q30 10 57 30 l20 13 l23 -7 q38 -12 78 -12 Z" /><glyph glyph-name="smile-wink" unicode="&#xf4da;" d="M72.5 367.5 q72.5 72.5 175.5 72.5 q103 0 175.5 -72.5 q72.5 -72.5 72.5 -175.5 q0 -103 -72.5 -175.5 q-72.5 -72.5 -175.5 -72.5 q-103 0 -175.5 72.5 q-72.5 72.5 -72.5 175.5 q0 103 72.5 175.5 ZM106.5 50.5 q58.5 -58.5 141.5 -58.5 q83 0 141.5 58.5 q58.5 58.5 58.5 141.5 q0 83 -58.5 141.5 q-58.5 58.5 -141.5 58.5 q-83 0 -141.5 -58.5 q-58.5 -58.5 -58.5 -141.5 q0 -83 58.5 -141.5 ZM348 144 q10 1 17.5 -5.5 q7.5 -6.5 8.5 -16.5 q1 -10 -5 -17 q-47 -57 -121 -57 q-74 0 -121 57 q-6 7 -5 17 q1 10 8.5 16.5 q7.5 6.5 17.5 5.5 q10 -1 16 -9 q33 -39 84 -39 q51 0 84 39 q6 8 16 9 ZM190.5 217.5 q-9.5 -9.5 -22.5 -9.5 q-13 0 -22.5 9.5 q-9.5 9.5 -9.5 22.5 q0 13 9.5 22.5 q9.5 9.5 22.5 9.5 q13 0 22.5 -9.5 q9.5 -9.5 9.5 -22.5 q0 -13 -9.5 -22.5 ZM328 268 q20 0 38.5 -12 q18.5 -12 21.5 -30 q1 -8 -6.5 -12 q-7.5 -4 -13.5 1 l-10 9 q-11 9 -30 9 q-19 0 -31 -9 l-9 -9 q-6 -5 -13.5 -1 q-7.5 4 -6.5 12 q2 12 11.5 22 q9.5 10 22.5 15 q13 5 26 5 Z" /><glyph glyph-name="angry" unicode="&#xf556;" d="M72.5 367.5 q72.5 72.5 175.5 72.5 q103 0 175.5 -72.5 q72.5 -72.5 72.5 -175.5 q0 -103 -72.5 -175.5 q-72.5 -72.5 -175.5 -72.5 q-103 0 -175.5 72.5 q-72.5 72.5 -72.5 175.5 q0 103 72.5 175.5 ZM106.5 50.5 q58.5 -58.5 141.5 -58.5 q83 0 141.5 58.5 q58.5 58.5 58.5 141.5 q0 83 -58.5 141.5 q-58.5 58.5 -141.5 58.5 q-83 0 -141.5 -58.5 q-58.5 -58.5 -58.5 -141.5 q0 -83 58.5 -141.5 ZM161 95 q34 41 87 41 q53 0 87 -41 q6 -7 5 -17 q-1 -10 -8 -16 q-8 -7 -18 -6 q-10 1 -16 9 q-19 22 -50 22 q-31 0 -50 -22 q-6 -8 -16 -9 q-10 -1 -17.5 5.5 q-7.5 6.5 -8.5 16.5 q-1 10 5 17 ZM200 208 q0 -13 -9.5 -22.5 q-9.5 -9.5 -22.5 -9.5 q-13 0 -22.5 9.5 q-9.5 9.5 -9.5 22.5 q0 8 5 16 l-28 9 q-9 3 -14 11.5 q-5 8.5 -2 18 q3 9.5 11.5 14.5 q8.5 5 18.5 2 l80 -24 q9 -3 14 -11.5 q5 -8.5 2 -18.5 q-5 -17 -23 -17 ZM387.5 277 q8.5 -5 11.5 -14.5 q3 -9.5 -2 -18 q-5 -8.5 -14 -11.5 l-28 -8 q5 -9 5 -17 q0 -13 -9.5 -22.5 q-9.5 -9.5 -22.5 -9.5 q-13 0 -22.5 9.5 q-9.5 9.5 -9.5 22.5 q-18 0 -23 17 q-2 5 -1 9.5 q1 4.5 3 8.5 q2 4 5.5 7.5 q3.5 3.5 8.5 4.5 l80 24 q10 3 18.5 -2 Z" /><glyph glyph-name="dizzy" unicode="&#xf567;" d="M72.5 367.5 q72.5 72.5 175.5 72.5 q103 0 175.5 -72.5 q72.5 -72.5 72.5 -175.5 q0 -103 -72.5 -175.5 q-72.5 -72.5 -175.5 -72.5 q-103 0 -175.5 72.5 q-72.5 72.5 -72.5 175.5 q0 103 72.5 175.5 ZM106.5 50.5 q58.5 -58.5 141.5 -58.5 q83 0 141.5 58.5 q58.5 58.5 58.5 141.5 q0 83 -58.5 141.5 q-58.5 58.5 -141.5 58.5 q-83 0 -141.5 -58.5 q-58.5 -58.5 -58.5 -141.5 q0 -83 58.5 -141.5 ZM220 224 q0 -8 -6 -14 q-6 -6 -14 -6 q-8 0 -14 6 l-18 18 l-18 -18 q-6 -6 -14 -6 q-8 0 -14 6 q-6 6 -6 14 q0 8 6 14 l18 18 l-18 18 q-6 6 -6 14 q0 8 6 14 q6 6 14 6 q8 0 14 -6 l18 -18 l18 18 q6 6 14 6 q8 0 14 -6 q6 -6 6 -14 q0 -8 -6 -14 l-18 -18 l18 -18 q6 -6 6 -14 ZM360 308 q8 0 14 -6 q6 -6 6 -14 q0 -8 -6 -14 l-18 -18 l18 -18 q6 -6 6 -14 q0 -8 -6 -14 q-6 -6 -14 -6 q-8 0 -14 6 l-18 18 l-18 -18 q-6 -6 -14 -6 q-8 0 -14 6 q-6 6 -6 14 q0 8 6 14 l18 18 l-18 18 q-6 6 -6 14 q0 8 6 14 q6 6 14 6 q8 0 14 -6 l18 -18 l18 18 q6 6 14 6 ZM203 157 q19 19 45 19 q26 0 45 -19 q19 -19 19 -45 q0 -26 -19 -45 q-19 -19 -45 -19 q-26 0 -45 19 q-19 19 -19 45 q0 26 19 45 Z" /><glyph glyph-name="flushed" unicode="&#xf579;" d="M72.5 367.5 q72.5 72.5 175.5 72.5 q103 0 175.5 -72.5 q72.5 -72.5 72.5 -175.5 q0 -103 -72.5 -175.5 q-72.5 -72.5 -175.5 -72.5 q-103 0 -175.5 72.5 q-72.5 72.5 -72.5 175.5 q0 103 72.5 175.5 ZM106.5 50.5 q58.5 -58.5 141.5 -58.5 q83 0 141.5 58.5 q58.5 58.5 58.5 141.5 q0 83 -58.5 141.5 q-58.5 58.5 -141.5 58.5 q-83 0 -141.5 -58.5 q-58.5 -58.5 -58.5 -141.5 q0 -83 58.5 -141.5 ZM287.5 280.5 q23.5 23.5 56.5 23.5 q33 0 56.5 -23.5 q23.5 -23.5 23.5 -56.5 q0 -33 -23.5 -56.5 q-23.5 -23.5 -56.5 -23.5 q-33 0 -56.5 23.5 q-23.5 23.5 -23.5 56.5 q0 33 23.5 56.5 ZM310 190 q14 -14 34 -14 q20 0 34 14 q14 14 14 34 q0 20 -14 34 q-14 14 -34 14 q-20 0 -34 -14 q-14 -14 -14 -34 q0 -20 14 -34 ZM327 241 q7 7 17 7 q10 0 17 -7 q7 -7 7 -17 q0 -10 -7 -17 q-7 -7 -17 -7 q-10 0 -17 7 q-7 7 -7 17 q0 10 7 17 ZM208.5 280.5 q23.5 -23.5 23.5 -56.5 q0 -33 -23.5 -56.5 q-23.5 -23.5 -56.5 -23.5 q-33 0 -56.5 23.5 q-23.5 23.5 -23.5 56.5 q0 33 23.5 56.5 q23.5 23.5 56.5 23.5 q33 0 56.5 -23.5 ZM118 190 q14 -14 34 -14 q20 0 34 14 q14 14 14 34 q0 20 -14 34 q-14 14 -34 14 q-20 0 -34 -14 q-14 -14 -14 -34 q0 -20 14 -34 ZM135 241 q7 7 17 7 q10 0 17 -7 q7 -7 7 -17 q0 -10 -7 -17 q-7 -7 -17 -7 q-10 0 -17 7 q-7 7 -7 17 q0 10 7 17 ZM312 104 q10 0 17 -7 q7 -7 7 -17 q0 -10 -7 -17 q-7 -7 -17 -7 l-128 0 q-10 0 -17 7 q-7 7 -7 17 q0 10 7 17 q7 7 17 7 l128 0 Z" /><glyph glyph-name="frown-open" unicode="&#xf57a;" d="M72.5 367.5 q72.5 72.5 175.5 72.5 q103 0 175.5 -72.5 q72.5 -72.5 72.5 -175.5 q0 -103 -72.5 -175.5 q-72.5 -72.5 -175.5 -72.5 q-103 0 -175.5 72.5 q-72.5 72.5 -72.5 175.5 q0 103 72.5 175.5 ZM106.5 50.5 q58.5 -58.5 141.5 -58.5 q83 0 141.5 58.5 q58.5 58.5 58.5 141.5 q0 83 -58.5 141.5 q-58.5 58.5 -141.5 58.5 q-83 0 -141.5 -58.5 q-58.5 -58.5 -58.5 -141.5 q0 -83 58.5 -141.5 ZM190.5 262.5 q9.5 -9.5 9.5 -22.5 q0 -13 -9.5 -22.5 q-9.5 -9.5 -22.5 -9.5 q-13 0 -22.5 9.5 q-9.5 9.5 -9.5 22.5 q0 13 9.5 22.5 q9.5 9.5 22.5 9.5 q13 0 22.5 -9.5 ZM305.5 262.5 q9.5 9.5 22.5 9.5 q13 0 22.5 -9.5 q9.5 -9.5 9.5 -22.5 q0 -13 -9.5 -22.5 q-9.5 -9.5 -22.5 -9.5 q-13 0 -22.5 9.5 q-9.5 9.5 -9.5 22.5 q0 13 9.5 22.5 ZM187.5 143 q30.5 17 60.5 17 q30 0 60.5 -17 q30.5 -17 35.5 -44 q1 -9 -5.5 -15 q-6.5 -6 -15.5 -3 q-49 15 -75 15 q-26 0 -75 -15 q-9 -3 -15.5 3 q-6.5 6 -5.5 15 q5 27 35.5 44 Z" /><glyph glyph-name="grimace" unicode="&#xf57f;" d="M72.5 367.5 q72.5 72.5 175.5 72.5 q103 0 175.5 -72.5 q72.5 -72.5 72.5 -175.5 q0 -103 -72.5 -175.5 q-72.5 -72.5 -175.5 -72.5 q-103 0 -175.5 72.5 q-72.5 72.5 -72.5 175.5 q0 103 72.5 175.5 ZM106.5 50.5 q58.5 -58.5 141.5 -58.5 q83 0 141.5 58.5 q58.5 58.5 58.5 141.5 q0 83 -58.5 141.5 q-58.5 58.5 -141.5 58.5 q-83 0 -141.5 -58.5 q-58.5 -58.5 -58.5 -141.5 q0 -83 58.5 -141.5 ZM190.5 217.5 q-9.5 -9.5 -22.5 -9.5 q-13 0 -22.5 9.5 q-9.5 9.5 -9.5 22.5 q0 13 9.5 22.5 q9.5 9.5 22.5 9.5 q13 0 22.5 -9.5 q9.5 -9.5 9.5 -22.5 q0 -13 -9.5 -22.5 ZM350.5 217.5 q-9.5 -9.5 -22.5 -9.5 q-13 0 -22.5 9.5 q-9.5 9.5 -9.5 22.5 q0 13 9.5 22.5 q9.5 9.5 22.5 9.5 q13 0 22.5 -9.5 q9.5 -9.5 9.5 -22.5 q0 -13 -9.5 -22.5 ZM344 192 q20 0 34 -14 q14 -14 14 -34 l0 -32 q0 -20 -14 -34 q-14 -14 -34 -14 l-192 0 q-20 0 -34 14 q-14 14 -14 34 l0 32 q0 20 14 34 q14 14 34 14 l192 0 ZM176 96 l0 24 l-40 0 l0 -8 q0 -7 4.5 -11.5 q4.5 -4.5 11.5 -4.5 l24 0 ZM176 136 l0 24 l-24 0 q-7 0 -11.5 -4.5 q-4.5 -4.5 -4.5 -11.5 l0 -8 l40 0 ZM240 96 l0 24 l-48 0 l0 -24 l48 0 ZM240 136 l0 24 l-48 0 l0 -24 l48 0 ZM304 96 l0 24 l-48 0 l0 -24 l48 0 ZM304 136 l0 24 l-48 0 l0 -24 l48 0 ZM360 112 l0 8 l-40 0 l0 -24 l24 0 q7 0 11.5 4.5 q4.5 4.5 4.5 11.5 ZM360 136 l0 8 q0 7 -4.5 11.5 q-4.5 4.5 -11.5 4.5 l-24 0 l0 -24 l40 0 Z" /><glyph glyph-name="grin" unicode="&#xf580;" d="M72.5 367.5 q72.5 72.5 175.5 72.5 q103 0 175.5 -72.5 q72.5 -72.5 72.5 -175.5 q0 -103 -72.5 -175.5 q-72.5 -72.5 -175.5 -72.5 q-103 0 -175.5 72.5 q-72.5 72.5 -72.5 175.5 q0 103 72.5 175.5 ZM106.5 50.5 q58.5 -58.5 141.5 -58.5 q83 0 141.5 58.5 q58.5 58.5 58.5 141.5 q0 83 -58.5 141.5 q-58.5 58.5 -141.5 58.5 q-83 0 -141.5 -58.5 q-58.5 -58.5 -58.5 -141.5 q0 -83 58.5 -141.5 ZM354 143 q7 3 13 -2 q6 -5 4 -13 q-5 -34 -43.5 -57 q-38.5 -23 -79.5 -23 q-26 0 -53 10 q-27 10 -47 29 q-20 19 -23 41 q-2 8 4 13 q6 5 13 2 q41 -13 106 -13 q65 0 106 13 ZM190.5 217.5 q-9.5 -9.5 -22.5 -9.5 q-13 0 -22.5 9.5 q-9.5 9.5 -9.5 22.5 q0 13 9.5 22.5 q9.5 9.5 22.5 9.5 q13 0 22.5 -9.5 q9.5 -9.5 9.5 -22.5 q0 -13 -9.5 -22.5 ZM350.5 217.5 q-9.5 -9.5 -22.5 -9.5 q-13 0 -22.5 9.5 q-9.5 9.5 -9.5 22.5 q0 13 9.5 22.5 q9.5 9.5 22.5 9.5 q13 0 22.5 -9.5 q9.5 -9.5 9.5 -22.5 q0 -13 -9.5 -22.5 Z" /><glyph glyph-name="grin-alt" unicode="&#xf581;" d="M200 200 q-5 -9 -15.5 -9 q-10.5 0 -16.5 9 q-15 22 -16 56 q1 34 16 56 q5 9 15.5 9 q10.5 0 16.5 -9 q15 -22 16 -56 q-1 -34 -16 -56 ZM328 200 q-5 -9 -15.5 -9 q-10.5 0 -16.5 9 q-15 22 -16 56 q1 34 16 56 q5 9 15.5 9 q10.5 0 16.5 -9 q15 -22 16 -56 q-1 -34 -16 -56 ZM72.5 367.5 q72.5 72.5 175.5 72.5 q103 0 175.5 -72.5 q72.5 -72.5 72.5 -175.5 q0 -103 -72.5 -175.5 q-72.5 -72.5 -175.5 -72.5 q-103 0 -175.5 72.5 q-72.5 72.5 -72.5 175.5 q0 103 72.5 175.5 ZM106.5 50.5 q58.5 -58.5 141.5 -58.5 q83 0 141.5 58.5 q58.5 58.5 58.5 141.5 q0 83 -58.5 141.5 q-58.5 58.5 -141.5 58.5 q-83 0 -141.5 -58.5 q-58.5 -58.5 -58.5 -141.5 q0 -83 58.5 -141.5 ZM354 143 q7 3 13 -2 q6 -5 4 -13 q-5 -34 -43.5 -57 q-38.5 -23 -79.5 -23 q-41 0 -79.5 23 q-38.5 23 -43.5 57 q-2 8 4 13 q6 5 13 2 q41 -13 106 -13 q65 0 106 13 Z" /><glyph glyph-name="grin-beam" unicode="&#xf582;" d="M72.5 367.5 q72.5 72.5 175.5 72.5 q103 0 175.5 -72.5 q72.5 -72.5 72.5 -175.5 q0 -103 -72.5 -175.5 q-72.5 -72.5 -175.5 -72.5 q-103 0 -175.5 72.5 q-72.5 72.5 -72.5 175.5 q0 103 72.5 175.5 ZM106.5 50.5 q58.5 -58.5 141.5 -58.5 q83 0 141.5 58.5 q58.5 58.5 58.5 141.5 q0 83 -58.5 141.5 q-58.5 58.5 -141.5 58.5 q-83 0 -141.5 -58.5 q-58.5 -58.5 -58.5 -141.5 q0 -83 58.5 -141.5 ZM354 143 q7 3 13 -2 q6 -5 4 -13 q-5 -34 -43.5 -57 q-38.5 -23 -79.5 -23 q-26 0 -53 10 q-27 10 -47 29 q-20 19 -23 41 q-2 8 4 13 q6 5 13 2 q41 -13 106 -13 q65 0 106 13 ZM118 216 q-7 2 -6 9 q1 12 5 23 q4 11 9.5 20 q5.5 9 12.5 15 q7 6 14.5 9.5 q7.5 3.5 14.5 3.5 q19 0 36.5 -20.5 q17.5 -20.5 19.5 -50.5 q1 -7 -5.5 -9 q-6.5 -2 -9.5 4 l-9 17 q-13 22 -32 22 q-19 0 -32 -22 l-9 -17 q-3 -6 -9 -4 ZM278 216 q-7 2 -6 9 q2 30 19.5 50.5 q17.5 20.5 36.5 20.5 q19 0 36.5 -20.5 q17.5 -20.5 19.5 -50.5 q1 -7 -5.5 -9 q-6.5 -2 -9.5 4 l-9 17 q-13 22 -32 22 q-19 0 -32 -22 l-9 -17 q-3 -6 -9 -4 Z" /><glyph glyph-name="grin-beam-sweat" unicode="&#xf583;" d="M477.5 305 q-15.5 -17 -37.5 -17 q-22 0 -37.5 17 q-15.5 17 -15.5 42 q0 28 46 97 q7 11 14 0 q46 -69 46 -97 q0 -25 -15.5 -42 ZM248 48 q-26 0 -53 10 q-27 10 -46.5 28.5 q-19.5 18.5 -23.5 41.5 q-2 8 4 13 q6 5 13 2 q41 -13 106 -13 q65 0 106 13 q7 3 13 -2.5 q6 -5.5 4 -12.5 q-5 -34 -43.5 -57 q-38.5 -23 -79.5 -23 ZM384 225 q1 -7 -5.5 -8.5 q-6.5 -1.5 -9.5 3.5 l-9 17 q-13 22 -32 22 q-19 0 -32 -22 l-9 -17 q-3 -6 -9 -4 q-7 2 -6 9 q2 30 19.5 50.5 q17.5 20.5 36.5 20.5 q19 0 36.5 -20.5 q17.5 -20.5 19.5 -50.5 ZM484 269 q12 -37 12 -77 q0 -103 -72.5 -175.5 q-72.5 -72.5 -175.5 -72.5 q-103 0 -175.5 72.5 q-72.5 72.5 -72.5 175.5 q0 103 72.5 175.5 q72.5 72.5 175.5 72.5 q67 0 125 -34 q-14 -28 -17 -46 q-50 32 -108 32 q-83 0 -141.5 -58.5 q-58.5 -58.5 -58.5 -141.5 q0 -83 58.5 -141.5 q58.5 -58.5 141.5 -58.5 q83 0 141.5 58.5 q58.5 58.5 58.5 141.5 q0 33 -11 64 q26 0 47 13 ZM200 237 q-13 22 -32 22 q-19 0 -32 -22 l-9 -17 q-3 -6 -9 -4 q-7 2 -6 9 q1 12 5 23 q4 11 9.5 20 q5.5 9 12.5 15 q7 6 14.5 9.5 q7.5 3.5 14.5 3.5 q19 0 36.5 -20.5 q17.5 -20.5 19.5 -50.5 q1 -7 -5.5 -9 q-6.5 -2 -9.5 4 l-9 17 Z" /><glyph glyph-name="grin-hearts" unicode="&#xf584;" d="M354 143 q7 3 13 -2 q6 -5 4 -13 q-5 -34 -43.5 -57 q-38.5 -23 -79.5 -23 q-41 0 -79.5 23 q-38.5 23 -43.5 57 q-2 8 4 13 q6 5 13 2 q41 -13 106 -13 q65 0 106 13 ZM201 192 l-70 18 q-16 4 -23 18.5 q-7 14.5 -2 29.5 q5 13 18 19 q13 6 27 3 l7 -2 l2 7 q4 14 16 22 q12 8 26 6 q16 -3 24.5 -16 q8.5 -13 4.5 -29 l-20 -70 q-2 -8 -10 -6 ZM390 258 q5 -15 -2 -29.5 q-7 -14.5 -23 -18.5 l-70 -18 q-8 -2 -10 6 l-20 70 q-4 16 4.5 29 q8.5 13 24.5 16 q9 1 18 -2 q9 -3 15 -10 q6 -7 9 -16 l2 -7 l7 2 q6 1 13 0.5 q7 -0.5 13 -3.5 q6 -3 11 -8 q5 -5 8 -11 ZM72.5 367.5 q72.5 72.5 175.5 72.5 q103 0 175.5 -72.5 q72.5 -72.5 72.5 -175.5 q0 -103 -72.5 -175.5 q-72.5 -72.5 -175.5 -72.5 q-103 0 -175.5 72.5 q-72.5 72.5 -72.5 175.5 q0 103 72.5 175.5 ZM106.5 50.5 q58.5 -58.5 141.5 -58.5 q83 0 141.5 58.5 q58.5 58.5 58.5 141.5 q0 83 -58.5 141.5 q-58.5 58.5 -141.5 58.5 q-83 0 -141.5 -58.5 q-58.5 -58.5 -58.5 -141.5 q0 -83 58.5 -141.5 Z" /><glyph glyph-name="grin-squint" unicode="&#xf585;" d="M72.5 367.5 q72.5 72.5 175.5 72.5 q103 0 175.5 -72.5 q72.5 -72.5 72.5 -175.5 q0 -103 -72.5 -175.5 q-72.5 -72.5 -175.5 -72.5 q-103 0 -175.5 72.5 q-72.5 72.5 -72.5 175.5 q0 103 72.5 175.5 ZM106.5 50.5 q58.5 -58.5 141.5 -58.5 q83 0 141.5 58.5 q58.5 58.5 58.5 141.5 q0 83 -58.5 141.5 q-58.5 58.5 -141.5 58.5 q-83 0 -141.5 -58.5 q-58.5 -58.5 -58.5 -141.5 q0 -83 58.5 -141.5 ZM354 143 q7 3 13 -2 q6 -5 4 -13 q-5 -34 -43.5 -57 q-38.5 -23 -79.5 -23 q-26 0 -53 10 q-27 10 -47 29 q-20 19 -23 41 q-2 8 4 13 q6 5 13 2 q41 -13 106 -13 q65 0 106 13 ZM134 182 q-9 -5 -15.5 2.5 q-6.5 7.5 0.5 15.5 l33 40 l-33 40 q-7 8 0 15.5 q7 7.5 15 2.5 l80 -48 q6 -3 6 -10 q0 -7 -6 -10 l-80 -48 ZM362 182 l-80 48 q-6 3 -6 10 q0 7 6 10 l80 48 q9 5 15 -2 q7 -8 0 -16 l-33 -40 l33 -40 q7 -8 0.5 -15.5 q-6.5 -7.5 -15.5 -2.5 Z" /><glyph glyph-name="grin-squint-tears" unicode="&#xf586;" d="M117 64 q5 1 8.5 -2.5 q3.5 -3.5 2.5 -8.5 q-12 -82 -31 -101 q-16 -16 -39.5 -16 q-23.5 0 -40.5 17 q-17 17 -17 40.5 q0 23.5 16 39.5 q19 19 101 31 ZM76 106 q-27 -6 -47 -13 q-31 68 -17 144 q14 76 69 130 q72 73 175 73 q60 0 113 -27 q-7 -21 -12 -49 q-47 28 -101 28 q-83 0 -141 -59 q-46 -45 -56 -108.5 q-10 -63.5 17 -118.5 ZM428 293 q29 6 49 12 q36 -69 24 -150 q-12 -81 -69 -138 q-73 -73 -176 -73 q-51 0 -99 21 q7 19 13 47 q41 -20 86 -20 q83 0 141 59 q49 48 57 116.5 q8 68.5 -26 125.5 ZM395 320 q-5 -1 -8.5 2.5 q-3.5 3.5 -2.5 8.5 q12 82 31 101 q16 16 39.5 16 q23.5 0 40.5 -17 q17 -17 17 -40.5 q0 -23.5 -16 -39.5 q-19 -19 -101 -31 ZM196 215 q7 2 12 -3 q5 -5 3 -12 l-23 -90 q-2 -9 -11 -9 l-1 0 q-10 1 -11 11 l-5 52 l-52 5 q-10 1 -11 11 q-1 10 9 12 l90 23 ZM248 237 q-9 0 -12 3 q-5 5 -3 12 l23 90 q2 9 12 9 q10 -1 11 -11 l5 -52 l52 -5 q10 -1 11 -11 q1 -10 -9 -12 l-90 -23 ZM300 148 q46 47 65 84 q4 7 11.5 7.5 q7.5 0.5 11.5 -5.5 q19 -31 9 -73 q-10 -42 -39 -71 q-29 -29 -71 -39.5 q-42 -10.5 -73 9.5 q-6 4 -5.5 11.5 q0.5 7.5 7.5 11.5 q38 20 84 65 Z" /><glyph glyph-name="grin-stars" unicode="&#xf587;" d="M72.5 367.5 q72.5 72.5 175.5 72.5 q103 0 175.5 -72.5 q72.5 -72.5 72.5 -175.5 q0 -103 -72.5 -175.5 q-72.5 -72.5 -175.5 -72.5 q-103 0 -175.5 72.5 q-72.5 72.5 -72.5 175.5 q0 103 72.5 175.5 ZM106.5 50.5 q58.5 -58.5 141.5 -58.5 q83 0 141.5 58.5 q58.5 58.5 58.5 141.5 q0 83 -58.5 141.5 q-58.5 58.5 -141.5 58.5 q-83 0 -141.5 -58.5 q-58.5 -58.5 -58.5 -141.5 q0 -83 58.5 -141.5 ZM354 143 q7 3 13 -2 q6 -5 4 -13 q-5 -34 -43.5 -57 q-38.5 -23 -79.5 -23 q-41 0 -79.5 23 q-38.5 23 -43.5 57 q-2 8 4 13 q6 5 13 2 q41 -13 106 -13 q65 0 106 13 ZM126 201 l6 35 l-26 24 q-3 4 -1.5 8.5 q1.5 4.5 6.5 5.5 l35 5 l15 31 q2 5 7 5 q5 0 7 -5 l15 -31 l35 -5 q5 -1 6.5 -5.5 q1.5 -4.5 -1.5 -8.5 l-26 -24 l6 -35 q1 -5 -3 -7.5 q-4 -2.5 -8 -0.5 l-31 16 l-31 -16 q-4 -2 -8 0.5 q-4 2.5 -3 7.5 ZM385 274 q5 -1 6.5 -5.5 q1.5 -4.5 -1.5 -8.5 l-26 -24 l6 -35 q1 -3 -0.5 -5.5 q-1.5 -2.5 -4.5 -3 q-3 -0.5 -6 0.5 l-31 16 l-31 -16 q-4 -2 -8 0.5 q-4 2.5 -3 7.5 l6 35 l-26 24 q-3 4 -1.5 8.5 q1.5 4.5 6.5 5.5 l35 5 l15 31 q2 5 7 5 q5 0 7 -5 l15 -31 l35 -5 Z" /><glyph glyph-name="grin-tears" unicode="&#xf588;" d="M117 192 q5 1 8.5 -2.5 q3.5 -3.5 2.5 -8.5 q-12 -82 -31 -101 q-16 -16 -39.5 -16 q-23.5 0 -40.5 17 q-17 17 -17 40.5 q0 23.5 16 39.5 q19 19 101 31 ZM624 161 q16 -16 16 -39.5 q0 -23.5 -17 -40.5 q-17 -17 -40.5 -17 q-23.5 0 -39.5 16 q-19 19 -31 101 q-1 5 2.5 8.5 q3.5 3.5 8.5 2.5 q82 -12 101 -31 ZM497 100 q11 -32 29 -47 q-35 -50 -89 -79.5 q-54 -29.5 -117 -29.5 q-63 0 -117 29.5 q-54 29.5 -89 79.5 q18 15 29 47 q25 -49 72.5 -78.5 q47.5 -29.5 104.5 -29.5 q57 0 104.5 29.5 q47.5 29.5 72.5 78.5 ZM123 224 q-11 1 -50 -7 q6 62 40.5 113 q34.5 51 89 80.5 q54.5 29.5 117.5 29.5 q63 0 117.5 -29.5 q54.5 -29.5 89 -80.5 q34.5 -51 40.5 -114 q-38 9 -50 8 q-11 72 -67 120 q-56 48 -130 48 q-74 0 -130 -48 q-56 -48 -67 -120 ZM399.5 71 q-38.5 -23 -79.5 -23 q-41 0 -79.5 23 q-38.5 23 -43.5 57 q-2 8 4 13 q6 5 13 2 q41 -13 106 -13 q65 0 106 13 q7 3 13 -2.5 q6 -5.5 4 -12.5 q-5 -34 -43.5 -57 ZM456 225 q1 -7 -5.5 -8.5 q-6.5 -1.5 -9.5 3.5 l-9 17 q-13 22 -32 22 q-19 0 -32 -22 l-9 -17 q-3 -6 -9 -4 q-7 2 -6 9 q2 30 19.5 50.5 q17.5 20.5 36.5 20.5 q19 0 36.5 -20.5 q17.5 -20.5 19.5 -50.5 ZM272 237 q-13 22 -32 22 q-19 0 -32 -22 l-9 -17 q-3 -6 -9 -4 q-7 2 -6 9 q1 12 5 23 q4 11 9.5 20 q5.5 9 12.5 15 q7 6 14.5 9.5 q7.5 3.5 14.5 3.5 q19 0 36.5 -20.5 q17.5 -20.5 19.5 -50.5 q1 -7 -5.5 -9 q-6.5 -2 -9.5 4 l-9 17 Z" /></font>
</defs>
</svg>
